<svg xmlns="http://www.w3.org/2000/svg" width="1500" height="1176" viewBox="0 0 1500 1176" role="img" aria-labelledby="title desc">
  <title id="title">Echo, compressed with context takeover</title>
  <desc id="desc">go1.27.0 · default build · 13th Gen Intel i9-13900H · 500ms benchtime Higher is better.</desc>
  <style>text{font-family:ui-monospace,SFMono-Regular,Menlo,Consolas,monospace;fill:#d8dee9}.title{font-family:ui-sans-serif,system-ui,sans-serif;font-size:28px;font-weight:700}.subtitle{font-family:ui-sans-serif,system-ui,sans-serif;font-size:15px;fill:#aab4c3}.group{font-family:ui-sans-serif,system-ui,sans-serif;font-size:18px;font-weight:650}.contract{font-family:ui-sans-serif,system-ui,sans-serif;font-size:14px;font-weight:650;fill:#9eabbc}.series{font-size:13px;fill:#c4ccd8}.value{font-size:13px;font-weight:650}.panel{fill:#151c27}</style>
  <rect width="1500" height="1176" rx="14" fill="#10151d"/>
  <text class="title" x="40" y="48">Echo, compressed with context takeover</text>
  <text class="subtitle" x="40" y="76">go1.27.0 · default build · 13th Gen Intel i9-13900H · 500ms benchtime · higher is better</text>
  <rect x="40" y="94" width="14" height="14" rx="3" fill="#50c878"/><text class="series" x="62" y="106">ews</text>
  <rect x="129" y="94" width="14" height="14" rx="3" fill="#5aa9e6"/><text class="series" x="151" y="106">ews-shared</text>
  <rect x="281" y="94" width="14" height="14" rx="3" fill="#ef8354"/><text class="series" x="303" y="106">gws</text>
  <rect x="370" y="94" width="14" height="14" rx="3" fill="#f2c14e"/><text class="series" x="392" y="106">gws-stream</text>
  <rect x="522" y="94" width="14" height="14" rx="3" fill="#b388eb"/><text class="series" x="544" y="106">coder</text>
  <rect x="629" y="94" width="14" height="14" rx="3" fill="#e76f9a"/><text class="series" x="651" y="106">coder-stream</text>
  <text class="subtitle" x="1460" y="106" text-anchor="end">Each column uses its own linear scale; labels show throughput and allocations per message.</text>
  <g transform="translate(0,145)">
    <rect class="panel" x="25" y="0" width="1450" height="233" rx="10"/>
    <text class="group" x="45" y="27">64 B messages</text>
    <text class="contract" x="45" y="53">1 connection</text>
    <text class="series" x="195" y="81" text-anchor="end">ews</text>
    <rect x="207" y="68" width="100.0" height="17" rx="4" fill="#50c878"/>
    <text class="value" x="315.0" y="81">5 MB/s · 0 allocs</text>
    <text class="series" x="195" y="106" text-anchor="end">ews-shared</text>
    <rect x="207" y="93" width="76.6" height="17" rx="4" fill="#5aa9e6"/>
    <text class="value" x="291.6" y="106">4 MB/s · 0 allocs</text>
    <text class="series" x="195" y="131" text-anchor="end">gws</text>
    <rect x="207" y="118" width="72.5" height="17" rx="4" fill="#ef8354"/>
    <text class="value" x="287.5" y="131">4 MB/s · 1 alloc</text>
    <text class="series" x="195" y="156" text-anchor="end">gws-stream</text>
    <rect x="207" y="143" width="73.5" height="17" rx="4" fill="#f2c14e"/>
    <text class="value" x="288.5" y="156">4 MB/s · 6 allocs</text>
    <text class="series" x="195" y="181" text-anchor="end">coder</text>
    <rect x="207" y="168" width="72.3" height="17" rx="4" fill="#b388eb"/>
    <text class="value" x="287.3" y="181">4 MB/s · 13 allocs</text>
    <text class="series" x="195" y="206" text-anchor="end">coder-stream</text>
    <rect x="207" y="193" width="63.2" height="17" rx="4" fill="#e76f9a"/>
    <text class="value" x="278.2" y="206">3 MB/s · 32 allocs</text>
    <text class="contract" x="515" y="53">128 connections</text>
    <text class="series" x="665" y="81" text-anchor="end">ews</text>
    <rect x="677" y="68" width="100.0" height="17" rx="4" fill="#50c878"/>
    <text class="value" x="785.0" y="81">37 MB/s · 0 allocs</text>
    <text class="series" x="665" y="106" text-anchor="end">ews-shared</text>
    <rect x="677" y="93" width="86.7" height="17" rx="4" fill="#5aa9e6"/>
    <text class="value" x="771.7" y="106">32 MB/s · 0 allocs</text>
    <text class="series" x="665" y="131" text-anchor="end">gws</text>
    <rect x="677" y="118" width="77.0" height="17" rx="4" fill="#ef8354"/>
    <text class="value" x="762.0" y="131">28 MB/s · 1 alloc</text>
    <text class="series" x="665" y="156" text-anchor="end">gws-stream</text>
    <rect x="677" y="143" width="78.9" height="17" rx="4" fill="#f2c14e"/>
    <text class="value" x="763.9" y="156">29 MB/s · 6 allocs</text>
    <text class="series" x="665" y="181" text-anchor="end">coder</text>
    <rect x="677" y="168" width="87.9" height="17" rx="4" fill="#b388eb"/>
    <text class="value" x="772.9" y="181">32 MB/s · 13 allocs</text>
    <text class="series" x="665" y="206" text-anchor="end">coder-stream</text>
    <rect x="677" y="193" width="75.8" height="17" rx="4" fill="#e76f9a"/>
    <text class="value" x="760.8" y="206">28 MB/s · 32 allocs</text>
    <text class="contract" x="985" y="53">2048 connections</text>
    <text class="series" x="1135" y="81" text-anchor="end">ews</text>
    <rect x="1147" y="68" width="100.0" height="17" rx="4" fill="#50c878"/>
    <text class="value" x="1255.0" y="81">33 MB/s · 0 allocs</text>
    <text class="series" x="1135" y="106" text-anchor="end">ews-shared</text>
    <rect x="1147" y="93" width="98.8" height="17" rx="4" fill="#5aa9e6"/>
    <text class="value" x="1253.8" y="106">33 MB/s · 0 allocs</text>
    <text class="series" x="1135" y="131" text-anchor="end">gws</text>
    <rect x="1147" y="118" width="97.1" height="17" rx="4" fill="#ef8354"/>
    <text class="value" x="1252.1" y="131">32 MB/s · 1 alloc</text>
    <text class="series" x="1135" y="156" text-anchor="end">gws-stream</text>
    <rect x="1147" y="143" width="96.9" height="17" rx="4" fill="#f2c14e"/>
    <text class="value" x="1251.9" y="156">32 MB/s · 6 allocs</text>
    <text class="series" x="1135" y="181" text-anchor="end">coder</text>
    <rect x="1147" y="168" width="80.3" height="17" rx="4" fill="#b388eb"/>
    <text class="value" x="1235.3" y="181">27 MB/s · 13 allocs</text>
    <text class="series" x="1135" y="206" text-anchor="end">coder-stream</text>
    <rect x="1147" y="193" width="77.4" height="17" rx="4" fill="#e76f9a"/>
    <text class="value" x="1232.4" y="206">26 MB/s · 32 allocs</text>
  </g>
  <g transform="translate(0,394)">
    <rect class="panel" x="25" y="0" width="1450" height="233" rx="10"/>
    <text class="group" x="45" y="27">1 KiB messages</text>
    <text class="contract" x="45" y="53">1 connection</text>
    <text class="series" x="195" y="81" text-anchor="end">ews</text>
    <rect x="207" y="68" width="100.0" height="17" rx="4" fill="#50c878"/>
    <text class="value" x="315.0" y="81">76 MB/s · 0 allocs</text>
    <text class="series" x="195" y="106" text-anchor="end">ews-shared</text>
    <rect x="207" y="93" width="79.2" height="17" rx="4" fill="#5aa9e6"/>
    <text class="value" x="294.2" y="106">60 MB/s · 0 allocs</text>
    <text class="series" x="195" y="131" text-anchor="end">gws</text>
    <rect x="207" y="118" width="73.8" height="17" rx="4" fill="#ef8354"/>
    <text class="value" x="288.8" y="131">56 MB/s · 1 alloc</text>
    <text class="series" x="195" y="156" text-anchor="end">gws-stream</text>
    <rect x="207" y="143" width="69.0" height="17" rx="4" fill="#f2c14e"/>
    <text class="value" x="284.0" y="156">52 MB/s · 6 allocs</text>
    <text class="series" x="195" y="181" text-anchor="end">coder</text>
    <rect x="207" y="168" width="57.8" height="17" rx="4" fill="#b388eb"/>
    <text class="value" x="272.8" y="181">44 MB/s · 16 allocs</text>
    <text class="series" x="195" y="206" text-anchor="end">coder-stream</text>
    <rect x="207" y="193" width="79.6" height="17" rx="4" fill="#e76f9a"/>
    <text class="value" x="294.6" y="206">60 MB/s · 20 allocs</text>
    <text class="contract" x="515" y="53">128 connections</text>
    <text class="series" x="665" y="81" text-anchor="end">ews</text>
    <rect x="677" y="68" width="100.0" height="17" rx="4" fill="#50c878"/>
    <text class="value" x="785.0" y="81">510 MB/s · 0 allocs</text>
    <text class="series" x="665" y="106" text-anchor="end">ews-shared</text>
    <rect x="677" y="93" width="85.3" height="17" rx="4" fill="#5aa9e6"/>
    <text class="value" x="770.3" y="106">435 MB/s · 0 allocs</text>
    <text class="series" x="665" y="131" text-anchor="end">gws</text>
    <rect x="677" y="118" width="73.1" height="17" rx="4" fill="#ef8354"/>
    <text class="value" x="758.1" y="131">373 MB/s · 1 alloc</text>
    <text class="series" x="665" y="156" text-anchor="end">gws-stream</text>
    <rect x="677" y="143" width="77.9" height="17" rx="4" fill="#f2c14e"/>
    <text class="value" x="762.9" y="156">397 MB/s · 6 allocs</text>
    <text class="series" x="665" y="181" text-anchor="end">coder</text>
    <rect x="677" y="168" width="82.2" height="17" rx="4" fill="#b388eb"/>
    <text class="value" x="767.2" y="181">419 MB/s · 16 allocs</text>
    <text class="series" x="665" y="206" text-anchor="end">coder-stream</text>
    <rect x="677" y="193" width="81.6" height="17" rx="4" fill="#e76f9a"/>
    <text class="value" x="766.6" y="206">416 MB/s · 20 allocs</text>
    <text class="contract" x="985" y="53">2048 connections</text>
    <text class="series" x="1135" y="81" text-anchor="end">ews</text>
    <rect x="1147" y="68" width="100.0" height="17" rx="4" fill="#50c878"/>
    <text class="value" x="1255.0" y="81">288 MB/s · 0 allocs</text>
    <text class="series" x="1135" y="106" text-anchor="end">ews-shared</text>
    <rect x="1147" y="93" width="98.1" height="17" rx="4" fill="#5aa9e6"/>
    <text class="value" x="1253.1" y="106">282 MB/s · 0 allocs</text>
    <text class="series" x="1135" y="131" text-anchor="end">gws</text>
    <rect x="1147" y="118" width="80.5" height="17" rx="4" fill="#ef8354"/>
    <text class="value" x="1235.5" y="131">232 MB/s · 1 alloc</text>
    <text class="series" x="1135" y="156" text-anchor="end">gws-stream</text>
    <rect x="1147" y="143" width="79.7" height="17" rx="4" fill="#f2c14e"/>
    <text class="value" x="1234.7" y="156">229 MB/s · 6 allocs</text>
    <text class="series" x="1135" y="181" text-anchor="end">coder</text>
    <rect x="1147" y="168" width="90.1" height="17" rx="4" fill="#b388eb"/>
    <text class="value" x="1245.1" y="181">259 MB/s · 16 allocs</text>
    <text class="series" x="1135" y="206" text-anchor="end">coder-stream</text>
    <rect x="1147" y="193" width="93.1" height="17" rx="4" fill="#e76f9a"/>
    <text class="value" x="1248.1" y="206">268 MB/s · 20 allocs</text>
  </g>
  <g transform="translate(0,643)">
    <rect class="panel" x="25" y="0" width="1450" height="233" rx="10"/>
    <text class="group" x="45" y="27">16 KiB messages</text>
    <text class="contract" x="45" y="53">1 connection</text>
    <text class="series" x="195" y="81" text-anchor="end">ews</text>
    <rect x="207" y="68" width="100.0" height="17" rx="4" fill="#50c878"/>
    <text class="value" x="315.0" y="81">674 MB/s · 0 allocs</text>
    <text class="series" x="195" y="106" text-anchor="end">ews-shared</text>
    <rect x="207" y="93" width="87.3" height="17" rx="4" fill="#5aa9e6"/>
    <text class="value" x="302.3" y="106">589 MB/s · 0 allocs</text>
    <text class="series" x="195" y="131" text-anchor="end">gws</text>
    <rect x="207" y="118" width="87.5" height="17" rx="4" fill="#ef8354"/>
    <text class="value" x="302.5" y="131">590 MB/s · 1 alloc</text>
    <text class="series" x="195" y="156" text-anchor="end">gws-stream</text>
    <rect x="207" y="143" width="84.0" height="17" rx="4" fill="#f2c14e"/>
    <text class="value" x="299.0" y="156">567 MB/s · 6 allocs</text>
    <text class="series" x="195" y="181" text-anchor="end">coder</text>
    <rect x="207" y="168" width="24.1" height="17" rx="4" fill="#b388eb"/>
    <text class="value" x="239.1" y="181">163 MB/s · 25 allocs</text>
    <text class="series" x="195" y="206" text-anchor="end">coder-stream</text>
    <rect x="207" y="193" width="84.7" height="17" rx="4" fill="#e76f9a"/>
    <text class="value" x="299.7" y="206">571 MB/s · 20 allocs</text>
    <text class="contract" x="515" y="53">128 connections</text>
    <text class="series" x="665" y="81" text-anchor="end">ews</text>
    <rect x="677" y="68" width="93.4" height="17" rx="4" fill="#50c878"/>
    <text class="value" x="778.4" y="81">3.2 GB/s · 0 allocs</text>
    <text class="series" x="665" y="106" text-anchor="end">ews-shared</text>
    <rect x="677" y="93" width="88.7" height="17" rx="4" fill="#5aa9e6"/>
    <text class="value" x="773.7" y="106">3.1 GB/s · 0 allocs</text>
    <text class="series" x="665" y="131" text-anchor="end">gws</text>
    <rect x="677" y="118" width="87.5" height="17" rx="4" fill="#ef8354"/>
    <text class="value" x="772.5" y="131">3.0 GB/s · 1 alloc</text>
    <text class="series" x="665" y="156" text-anchor="end">gws-stream</text>
    <rect x="677" y="143" width="100.0" height="17" rx="4" fill="#f2c14e"/>
    <text class="value" x="785.0" y="156">3.5 GB/s · 6 allocs</text>
    <text class="series" x="665" y="181" text-anchor="end">coder</text>
    <rect x="677" y="168" width="70.9" height="17" rx="4" fill="#b388eb"/>
    <text class="value" x="755.9" y="181">2.5 GB/s · 25 allocs</text>
    <text class="series" x="665" y="206" text-anchor="end">coder-stream</text>
    <rect x="677" y="193" width="89.0" height="17" rx="4" fill="#e76f9a"/>
    <text class="value" x="774.0" y="206">3.1 GB/s · 20 allocs</text>
    <text class="contract" x="985" y="53">2048 connections</text>
    <text class="series" x="1135" y="81" text-anchor="end">ews</text>
    <rect x="1147" y="68" width="89.2" height="17" rx="4" fill="#50c878"/>
    <text class="value" x="1244.2" y="81">2.0 GB/s · 0 allocs</text>
    <text class="series" x="1135" y="106" text-anchor="end">ews-shared</text>
    <rect x="1147" y="93" width="100.0" height="17" rx="4" fill="#5aa9e6"/>
    <text class="value" x="1255.0" y="106">2.3 GB/s · 0 allocs</text>
    <text class="series" x="1135" y="131" text-anchor="end">gws</text>
    <rect x="1147" y="118" width="84.5" height="17" rx="4" fill="#ef8354"/>
    <text class="value" x="1239.5" y="131">1.9 GB/s · 1 alloc</text>
    <text class="series" x="1135" y="156" text-anchor="end">gws-stream</text>
    <rect x="1147" y="143" width="96.1" height="17" rx="4" fill="#f2c14e"/>
    <text class="value" x="1251.1" y="156">2.2 GB/s · 6 allocs</text>
    <text class="series" x="1135" y="181" text-anchor="end">coder</text>
    <rect x="1147" y="168" width="66.8" height="17" rx="4" fill="#b388eb"/>
    <text class="value" x="1221.8" y="181">1.5 GB/s · 25 allocs</text>
    <text class="series" x="1135" y="206" text-anchor="end">coder-stream</text>
    <rect x="1147" y="193" width="92.5" height="17" rx="4" fill="#e76f9a"/>
    <text class="value" x="1247.5" y="206">2.1 GB/s · 20 allocs</text>
  </g>
  <g transform="translate(0,892)">
    <rect class="panel" x="25" y="0" width="1450" height="233" rx="10"/>
    <text class="group" x="45" y="27">256 KiB messages</text>
    <text class="contract" x="45" y="53">1 connection</text>
    <text class="series" x="195" y="81" text-anchor="end">ews</text>
    <rect x="207" y="68" width="100.0" height="17" rx="4" fill="#50c878"/>
    <text class="value" x="315.0" y="81">1.3 GB/s · 0 allocs</text>
    <text class="series" x="195" y="106" text-anchor="end">ews-shared</text>
    <rect x="207" y="93" width="95.3" height="17" rx="4" fill="#5aa9e6"/>
    <text class="value" x="310.3" y="106">1.3 GB/s · 0 allocs</text>
    <text class="series" x="195" y="131" text-anchor="end">gws</text>
    <rect x="207" y="118" width="25.0" height="17" rx="4" fill="#ef8354"/>
    <text class="value" x="240.0" y="131">337 MB/s · 19 allocs</text>
    <text class="series" x="195" y="156" text-anchor="end">gws-stream</text>
    <rect x="207" y="143" width="27.5" height="17" rx="4" fill="#f2c14e"/>
    <text class="value" x="242.5" y="156">371 MB/s · 22 allocs</text>
    <text class="series" x="195" y="181" text-anchor="end">coder</text>
    <rect x="207" y="168" width="25.8" height="17" rx="4" fill="#b388eb"/>
    <text class="value" x="240.8" y="181">348 MB/s · 39 allocs</text>
    <text class="series" x="195" y="206" text-anchor="end">coder-stream</text>
    <rect x="207" y="193" width="86.5" height="17" rx="4" fill="#e76f9a"/>
    <text class="value" x="301.5" y="206">1.2 GB/s · 56 allocs</text>
    <text class="contract" x="515" y="53">128 connections</text>
    <text class="series" x="665" y="81" text-anchor="end">ews</text>
    <rect x="677" y="68" width="92.5" height="17" rx="4" fill="#50c878"/>
    <text class="value" x="777.5" y="81">9.6 GB/s · 0 allocs</text>
    <text class="series" x="665" y="106" text-anchor="end">ews-shared</text>
    <rect x="677" y="93" width="100.0" height="17" rx="4" fill="#5aa9e6"/>
    <text class="value" x="785.0" y="106">10.4 GB/s · 0 allocs</text>
    <text class="series" x="665" y="131" text-anchor="end">gws</text>
    <rect x="677" y="118" width="34.0" height="17" rx="4" fill="#ef8354"/>
    <text class="value" x="719.0" y="131">3.5 GB/s · 17 allocs</text>
    <text class="series" x="665" y="156" text-anchor="end">gws-stream</text>
    <rect x="677" y="143" width="34.1" height="17" rx="4" fill="#f2c14e"/>
    <text class="value" x="719.1" y="156">3.6 GB/s · 20 allocs</text>
    <text class="series" x="665" y="181" text-anchor="end">coder</text>
    <rect x="677" y="168" width="50.8" height="17" rx="4" fill="#b388eb"/>
    <text class="value" x="735.8" y="181">5.3 GB/s · 32 allocs</text>
    <text class="series" x="665" y="206" text-anchor="end">coder-stream</text>
    <rect x="677" y="193" width="82.1" height="17" rx="4" fill="#e76f9a"/>
    <text class="value" x="767.1" y="206">8.6 GB/s · 56 allocs</text>
    <text class="contract" x="985" y="53">2048 connections</text>
    <text class="series" x="1135" y="81" text-anchor="end">ews</text>
    <rect x="1147" y="68" width="96.0" height="17" rx="4" fill="#50c878"/>
    <text class="value" x="1251.0" y="81">8.9 GB/s · 0 allocs</text>
    <text class="series" x="1135" y="106" text-anchor="end">ews-shared</text>
    <rect x="1147" y="93" width="100.0" height="17" rx="4" fill="#5aa9e6"/>
    <text class="value" x="1255.0" y="106">9.2 GB/s · 0 allocs</text>
    <text class="series" x="1135" y="131" text-anchor="end">gws</text>
    <rect x="1147" y="118" width="38.9" height="17" rx="4" fill="#ef8354"/>
    <text class="value" x="1193.9" y="131">3.6 GB/s · 20 allocs</text>
    <text class="series" x="1135" y="156" text-anchor="end">gws-stream</text>
    <rect x="1147" y="143" width="26.5" height="17" rx="4" fill="#f2c14e"/>
    <text class="value" x="1181.5" y="156">2.5 GB/s · 26 allocs</text>
    <text class="series" x="1135" y="181" text-anchor="end">coder</text>
    <rect x="1147" y="168" width="52.6" height="17" rx="4" fill="#b388eb"/>
    <text class="value" x="1207.6" y="181">4.9 GB/s · 33 allocs</text>
    <text class="series" x="1135" y="206" text-anchor="end">coder-stream</text>
    <rect x="1147" y="193" width="81.4" height="17" rx="4" fill="#e76f9a"/>
    <text class="value" x="1236.4" y="206">7.5 GB/s · 56 allocs</text>
  </g>
</svg>
