<svg xmlns="http://www.w3.org/2000/svg" width="1500" height="1076" viewBox="0 0 1500 1076" role="img" aria-labelledby="title desc">
  <title id="title">Echo, uncompressed</title>
  <desc id="desc">go1.27.0-X:simd · GOEXPERIMENT=simd · 13th Gen Intel i9-13900H · 500ms benchtime Higher is better.</desc>
  <style>text{font-family:ui-monospace,SFMono-Regular,Menlo,Consolas,monospace;fill:#d8dee9}.title{font-family:ui-sans-serif,system-ui,sans-serif;font-size:28px;font-weight:700}.subtitle{font-family:ui-sans-serif,system-ui,sans-serif;font-size:15px;fill:#aab4c3}.group{font-family:ui-sans-serif,system-ui,sans-serif;font-size:18px;font-weight:650}.contract{font-family:ui-sans-serif,system-ui,sans-serif;font-size:14px;font-weight:650;fill:#9eabbc}.series{font-size:13px;fill:#c4ccd8}.value{font-size:13px;font-weight:650}.panel{fill:#151c27}</style>
  <rect width="1500" height="1076" rx="14" fill="#10151d"/>
  <text class="title" x="40" y="48">Echo, uncompressed</text>
  <text class="subtitle" x="40" y="76">go1.27.0-X:simd · GOEXPERIMENT=simd · 13th Gen Intel i9-13900H · 500ms benchtime · higher is better</text>
  <rect x="40" y="94" width="14" height="14" rx="3" fill="#50c878"/><text class="series" x="62" y="106">ews</text>
  <rect x="129" y="94" width="14" height="14" rx="3" fill="#ef8354"/><text class="series" x="151" y="106">gws</text>
  <rect x="218" y="94" width="14" height="14" rx="3" fill="#f2c14e"/><text class="series" x="240" y="106">gws-stream</text>
  <rect x="370" y="94" width="14" height="14" rx="3" fill="#b388eb"/><text class="series" x="392" y="106">coder</text>
  <rect x="477" y="94" width="14" height="14" rx="3" fill="#e76f9a"/><text class="series" x="499" y="106">coder-stream</text>
  <text class="subtitle" x="1460" y="106" text-anchor="end">Each column uses its own linear scale; labels show throughput and allocations per message.</text>
  <g transform="translate(0,145)">
    <rect class="panel" x="25" y="0" width="1450" height="208" rx="10"/>
    <text class="group" x="45" y="27">64 B messages</text>
    <text class="contract" x="45" y="53">1 connection</text>
    <text class="series" x="195" y="81" text-anchor="end">ews</text>
    <rect x="207" y="68" width="99.7" height="17" rx="4" fill="#50c878"/>
    <text class="value" x="314.7" y="81">9 MB/s · 0 allocs</text>
    <text class="series" x="195" y="106" text-anchor="end">gws</text>
    <rect x="207" y="93" width="100.0" height="17" rx="4" fill="#ef8354"/>
    <text class="value" x="315.0" y="106">9 MB/s · 1 alloc</text>
    <text class="series" x="195" y="131" text-anchor="end">gws-stream</text>
    <rect x="207" y="118" width="90.8" height="17" rx="4" fill="#f2c14e"/>
    <text class="value" x="305.8" y="131">8 MB/s · 6 allocs</text>
    <text class="series" x="195" y="156" text-anchor="end">coder</text>
    <rect x="207" y="143" width="73.3" height="17" rx="4" fill="#b388eb"/>
    <text class="value" x="288.3" y="156">7 MB/s · 13 allocs</text>
    <text class="series" x="195" y="181" text-anchor="end">coder-stream</text>
    <rect x="207" y="168" width="68.4" height="17" rx="4" fill="#e76f9a"/>
    <text class="value" x="283.4" y="181">6 MB/s · 16 allocs</text>
    <text class="contract" x="515" y="53">128 connections</text>
    <text class="series" x="665" y="81" text-anchor="end">ews</text>
    <rect x="677" y="68" width="97.6" height="17" rx="4" fill="#50c878"/>
    <text class="value" x="782.6" y="81">76 MB/s · 0 allocs</text>
    <text class="series" x="665" y="106" text-anchor="end">gws</text>
    <rect x="677" y="93" width="100.0" height="17" rx="4" fill="#ef8354"/>
    <text class="value" x="785.0" y="106">78 MB/s · 1 alloc</text>
    <text class="series" x="665" y="131" text-anchor="end">gws-stream</text>
    <rect x="677" y="118" width="94.5" height="17" rx="4" fill="#f2c14e"/>
    <text class="value" x="779.5" y="131">74 MB/s · 6 allocs</text>
    <text class="series" x="665" y="156" text-anchor="end">coder</text>
    <rect x="677" y="143" width="69.4" height="17" rx="4" fill="#b388eb"/>
    <text class="value" x="754.4" y="156">54 MB/s · 13 allocs</text>
    <text class="series" x="665" y="181" text-anchor="end">coder-stream</text>
    <rect x="677" y="168" width="70.0" height="17" rx="4" fill="#e76f9a"/>
    <text class="value" x="755.0" y="181">55 MB/s · 16 allocs</text>
    <text class="contract" x="985" y="53">2048 connections</text>
    <text class="series" x="1135" y="81" text-anchor="end">ews</text>
    <rect x="1147" y="68" width="99.7" height="17" rx="4" fill="#50c878"/>
    <text class="value" x="1254.7" y="81">68 MB/s · 0 allocs</text>
    <text class="series" x="1135" y="106" text-anchor="end">gws</text>
    <rect x="1147" y="93" width="100.0" height="17" rx="4" fill="#ef8354"/>
    <text class="value" x="1255.0" y="106">68 MB/s · 1 alloc</text>
    <text class="series" x="1135" y="131" text-anchor="end">gws-stream</text>
    <rect x="1147" y="118" width="94.4" height="17" rx="4" fill="#f2c14e"/>
    <text class="value" x="1249.4" y="131">64 MB/s · 6 allocs</text>
    <text class="series" x="1135" y="156" text-anchor="end">coder</text>
    <rect x="1147" y="143" width="73.8" height="17" rx="4" fill="#b388eb"/>
    <text class="value" x="1228.8" y="156">50 MB/s · 13 allocs</text>
    <text class="series" x="1135" y="181" text-anchor="end">coder-stream</text>
    <rect x="1147" y="168" width="73.6" height="17" rx="4" fill="#e76f9a"/>
    <text class="value" x="1228.6" y="181">50 MB/s · 16 allocs</text>
  </g>
  <g transform="translate(0,369)">
    <rect class="panel" x="25" y="0" width="1450" height="208" rx="10"/>
    <text class="group" x="45" y="27">1 KiB messages</text>
    <text class="contract" x="45" y="53">1 connection</text>
    <text class="series" x="195" y="81" text-anchor="end">ews</text>
    <rect x="207" y="68" width="100.0" height="17" rx="4" fill="#50c878"/>
    <text class="value" x="315.0" y="81">138 MB/s · 0 allocs</text>
    <text class="series" x="195" y="106" text-anchor="end">gws</text>
    <rect x="207" y="93" width="99.4" height="17" rx="4" fill="#ef8354"/>
    <text class="value" x="314.4" y="106">137 MB/s · 1 alloc</text>
    <text class="series" x="195" y="131" text-anchor="end">gws-stream</text>
    <rect x="207" y="118" width="97.2" height="17" rx="4" fill="#f2c14e"/>
    <text class="value" x="312.2" y="131">134 MB/s · 6 allocs</text>
    <text class="series" x="195" y="156" text-anchor="end">coder</text>
    <rect x="207" y="143" width="42.1" height="17" rx="4" fill="#b388eb"/>
    <text class="value" x="257.1" y="156">58 MB/s · 24 allocs</text>
    <text class="series" x="195" y="181" text-anchor="end">coder-stream</text>
    <rect x="207" y="168" width="68.9" height="17" rx="4" fill="#e76f9a"/>
    <text class="value" x="283.9" y="181">95 MB/s · 16 allocs</text>
    <text class="contract" x="515" y="53">128 connections</text>
    <text class="series" x="665" y="81" text-anchor="end">ews</text>
    <rect x="677" y="68" width="100.0" height="17" rx="4" fill="#50c878"/>
    <text class="value" x="785.0" y="81">1.2 GB/s · 0 allocs</text>
    <text class="series" x="665" y="106" text-anchor="end">gws</text>
    <rect x="677" y="93" width="99.6" height="17" rx="4" fill="#ef8354"/>
    <text class="value" x="784.6" y="106">1.2 GB/s · 1 alloc</text>
    <text class="series" x="665" y="131" text-anchor="end">gws-stream</text>
    <rect x="677" y="118" width="96.9" height="17" rx="4" fill="#f2c14e"/>
    <text class="value" x="781.9" y="131">1.1 GB/s · 6 allocs</text>
    <text class="series" x="665" y="156" text-anchor="end">coder</text>
    <rect x="677" y="143" width="56.6" height="17" rx="4" fill="#b388eb"/>
    <text class="value" x="741.6" y="156">656 MB/s · 24 allocs</text>
    <text class="series" x="665" y="181" text-anchor="end">coder-stream</text>
    <rect x="677" y="168" width="74.2" height="17" rx="4" fill="#e76f9a"/>
    <text class="value" x="759.2" y="181">861 MB/s · 16 allocs</text>
    <text class="contract" x="985" y="53">2048 connections</text>
    <text class="series" x="1135" y="81" text-anchor="end">ews</text>
    <rect x="1147" y="68" width="99.5" height="17" rx="4" fill="#50c878"/>
    <text class="value" x="1254.5" y="81">937 MB/s · 0 allocs</text>
    <text class="series" x="1135" y="106" text-anchor="end">gws</text>
    <rect x="1147" y="93" width="100.0" height="17" rx="4" fill="#ef8354"/>
    <text class="value" x="1255.0" y="106">941 MB/s · 1 alloc</text>
    <text class="series" x="1135" y="131" text-anchor="end">gws-stream</text>
    <rect x="1147" y="118" width="95.3" height="17" rx="4" fill="#f2c14e"/>
    <text class="value" x="1250.3" y="131">897 MB/s · 6 allocs</text>
    <text class="series" x="1135" y="156" text-anchor="end">coder</text>
    <rect x="1147" y="143" width="62.1" height="17" rx="4" fill="#b388eb"/>
    <text class="value" x="1217.1" y="156">585 MB/s · 24 allocs</text>
    <text class="series" x="1135" y="181" text-anchor="end">coder-stream</text>
    <rect x="1147" y="168" width="74.5" height="17" rx="4" fill="#e76f9a"/>
    <text class="value" x="1229.5" y="181">701 MB/s · 16 allocs</text>
  </g>
  <g transform="translate(0,593)">
    <rect class="panel" x="25" y="0" width="1450" height="208" rx="10"/>
    <text class="group" x="45" y="27">16 KiB messages</text>
    <text class="contract" x="45" y="53">1 connection</text>
    <text class="series" x="195" y="81" text-anchor="end">ews</text>
    <rect x="207" y="68" width="95.7" height="17" rx="4" fill="#50c878"/>
    <text class="value" x="310.7" y="81">1.4 GB/s · 0 allocs</text>
    <text class="series" x="195" y="106" text-anchor="end">gws</text>
    <rect x="207" y="93" width="100.0" height="17" rx="4" fill="#ef8354"/>
    <text class="value" x="315.0" y="106">1.5 GB/s · 1 alloc</text>
    <text class="series" x="195" y="131" text-anchor="end">gws-stream</text>
    <rect x="207" y="118" width="90.0" height="17" rx="4" fill="#f2c14e"/>
    <text class="value" x="305.0" y="131">1.3 GB/s · 6 allocs</text>
    <text class="series" x="195" y="156" text-anchor="end">coder</text>
    <rect x="207" y="143" width="12.5" height="17" rx="4" fill="#b388eb"/>
    <text class="value" x="227.5" y="156">182 MB/s · 61 allocs</text>
    <text class="series" x="195" y="181" text-anchor="end">coder-stream</text>
    <rect x="207" y="168" width="54.2" height="17" rx="4" fill="#e76f9a"/>
    <text class="value" x="269.2" y="181">791 MB/s · 16 allocs</text>
    <text class="contract" x="515" y="53">128 connections</text>
    <text class="series" x="665" y="81" text-anchor="end">ews</text>
    <rect x="677" y="68" width="98.0" height="17" rx="4" fill="#50c878"/>
    <text class="value" x="783.0" y="81">10.9 GB/s · 0 allocs</text>
    <text class="series" x="665" y="106" text-anchor="end">gws</text>
    <rect x="677" y="93" width="97.8" height="17" rx="4" fill="#ef8354"/>
    <text class="value" x="782.8" y="106">10.9 GB/s · 1 alloc</text>
    <text class="series" x="665" y="131" text-anchor="end">gws-stream</text>
    <rect x="677" y="118" width="100.0" height="17" rx="4" fill="#f2c14e"/>
    <text class="value" x="785.0" y="131">11.1 GB/s · 6 allocs</text>
    <text class="series" x="665" y="156" text-anchor="end">coder</text>
    <rect x="677" y="143" width="21.4" height="17" rx="4" fill="#b388eb"/>
    <text class="value" x="706.4" y="156">2.4 GB/s · 61 allocs</text>
    <text class="series" x="665" y="181" text-anchor="end">coder-stream</text>
    <rect x="677" y="168" width="57.5" height="17" rx="4" fill="#e76f9a"/>
    <text class="value" x="742.5" y="181">6.4 GB/s · 16 allocs</text>
    <text class="contract" x="985" y="53">2048 connections</text>
    <text class="series" x="1135" y="81" text-anchor="end">ews</text>
    <rect x="1147" y="68" width="100.0" height="17" rx="4" fill="#50c878"/>
    <text class="value" x="1255.0" y="81">6.0 GB/s · 0 allocs</text>
    <text class="series" x="1135" y="106" text-anchor="end">gws</text>
    <rect x="1147" y="93" width="100.0" height="17" rx="4" fill="#ef8354"/>
    <text class="value" x="1255.0" y="106">6.0 GB/s · 1 alloc</text>
    <text class="series" x="1135" y="131" text-anchor="end">gws-stream</text>
    <rect x="1147" y="118" width="98.0" height="17" rx="4" fill="#f2c14e"/>
    <text class="value" x="1253.0" y="131">5.9 GB/s · 6 allocs</text>
    <text class="series" x="1135" y="156" text-anchor="end">coder</text>
    <rect x="1147" y="143" width="45.3" height="17" rx="4" fill="#b388eb"/>
    <text class="value" x="1200.3" y="156">2.7 GB/s · 61 allocs</text>
    <text class="series" x="1135" y="181" text-anchor="end">coder-stream</text>
    <rect x="1147" y="168" width="69.0" height="17" rx="4" fill="#e76f9a"/>
    <text class="value" x="1224.0" y="181">4.1 GB/s · 16 allocs</text>
  </g>
  <g transform="translate(0,817)">
    <rect class="panel" x="25" y="0" width="1450" height="208" rx="10"/>
    <text class="group" x="45" y="27">256 KiB messages</text>
    <text class="contract" x="45" y="53">1 connection</text>
    <text class="series" x="195" y="81" text-anchor="end">ews</text>
    <rect x="207" y="68" width="100.0" height="17" rx="4" fill="#50c878"/>
    <text class="value" x="315.0" y="81">3.4 GB/s · 0 allocs</text>
    <text class="series" x="195" y="106" text-anchor="end">gws</text>
    <rect x="207" y="93" width="16.8" height="17" rx="4" fill="#ef8354"/>
    <text class="value" x="231.8" y="106">577 MB/s · 6 allocs</text>
    <text class="series" x="195" y="131" text-anchor="end">gws-stream</text>
    <rect x="207" y="118" width="84.2" height="17" rx="4" fill="#f2c14e"/>
    <text class="value" x="299.2" y="131">2.9 GB/s · 12 allocs</text>
    <text class="series" x="195" y="156" text-anchor="end">coder</text>
    <rect x="207" y="143" width="11.9" height="17" rx="4" fill="#b388eb"/>
    <text class="value" x="226.9" y="156">409 MB/s · 97 allocs</text>
    <text class="series" x="195" y="181" text-anchor="end">coder-stream</text>
    <rect x="207" y="168" width="55.2" height="17" rx="4" fill="#e76f9a"/>
    <text class="value" x="270.2" y="181">1.9 GB/s · 72 allocs</text>
    <text class="contract" x="515" y="53">128 connections</text>
    <text class="series" x="665" y="81" text-anchor="end">ews</text>
    <rect x="677" y="68" width="100.0" height="17" rx="4" fill="#50c878"/>
    <text class="value" x="785.0" y="81">10.8 GB/s · 0 allocs</text>
    <text class="series" x="665" y="106" text-anchor="end">gws</text>
    <rect x="677" y="93" width="58.2" height="17" rx="4" fill="#ef8354"/>
    <text class="value" x="743.2" y="106">6.3 GB/s · 5 allocs</text>
    <text class="series" x="665" y="131" text-anchor="end">gws-stream</text>
    <rect x="677" y="118" width="96.0" height="17" rx="4" fill="#f2c14e"/>
    <text class="value" x="781.0" y="131">10.3 GB/s · 12 allocs</text>
    <text class="series" x="665" y="156" text-anchor="end">coder</text>
    <rect x="677" y="143" width="56.7" height="17" rx="4" fill="#b388eb"/>
    <text class="value" x="741.7" y="156">6.1 GB/s · 96 allocs</text>
    <text class="series" x="665" y="181" text-anchor="end">coder-stream</text>
    <rect x="677" y="168" width="87.5" height="17" rx="4" fill="#e76f9a"/>
    <text class="value" x="772.5" y="181">9.4 GB/s · 72 allocs</text>
    <text class="contract" x="985" y="53">2048 connections</text>
    <text class="series" x="1135" y="81" text-anchor="end">ews</text>
    <rect x="1147" y="68" width="100.0" height="17" rx="4" fill="#50c878"/>
    <text class="value" x="1255.0" y="81">8.4 GB/s · 0 allocs</text>
    <text class="series" x="1135" y="106" text-anchor="end">gws</text>
    <rect x="1147" y="93" width="64.2" height="17" rx="4" fill="#ef8354"/>
    <text class="value" x="1219.2" y="106">5.4 GB/s · 5 allocs</text>
    <text class="series" x="1135" y="131" text-anchor="end">gws-stream</text>
    <rect x="1147" y="118" width="97.9" height="17" rx="4" fill="#f2c14e"/>
    <text class="value" x="1252.9" y="131">8.2 GB/s · 12 allocs</text>
    <text class="series" x="1135" y="156" text-anchor="end">coder</text>
    <rect x="1147" y="143" width="59.9" height="17" rx="4" fill="#b388eb"/>
    <text class="value" x="1214.9" y="156">5.0 GB/s · 96 allocs</text>
    <text class="series" x="1135" y="181" text-anchor="end">coder-stream</text>
    <rect x="1147" y="168" width="92.0" height="17" rx="4" fill="#e76f9a"/>
    <text class="value" x="1247.0" y="181">7.7 GB/s · 72 allocs</text>
  </g>
</svg>
