<svg xmlns="http://www.w3.org/2000/svg" width="1500" height="1076" viewBox="0 0 1500 1076" role="img" aria-labelledby="title desc">
  <title id="title">Echo, uncompressed</title>
  <desc id="desc">go1.27.0 · default build · 13th Gen Intel i9-13900H · 500ms benchtime Higher is better.</desc>
  <style>text{font-family:ui-monospace,SFMono-Regular,Menlo,Consolas,monospace;fill:#d8dee9}.title{font-family:ui-sans-serif,system-ui,sans-serif;font-size:28px;font-weight:700}.subtitle{font-family:ui-sans-serif,system-ui,sans-serif;font-size:15px;fill:#aab4c3}.group{font-family:ui-sans-serif,system-ui,sans-serif;font-size:18px;font-weight:650}.contract{font-family:ui-sans-serif,system-ui,sans-serif;font-size:14px;font-weight:650;fill:#9eabbc}.series{font-size:13px;fill:#c4ccd8}.value{font-size:13px;font-weight:650}.panel{fill:#151c27}</style>
  <rect width="1500" height="1076" rx="14" fill="#10151d"/>
  <text class="title" x="40" y="48">Echo, uncompressed</text>
  <text class="subtitle" x="40" y="76">go1.27.0 · default build · 13th Gen Intel i9-13900H · 500ms benchtime · higher is better</text>
  <rect x="40" y="94" width="14" height="14" rx="3" fill="#50c878"/><text class="series" x="62" y="106">ews</text>
  <rect x="129" y="94" width="14" height="14" rx="3" fill="#ef8354"/><text class="series" x="151" y="106">gws</text>
  <rect x="218" y="94" width="14" height="14" rx="3" fill="#f2c14e"/><text class="series" x="240" y="106">gws-stream</text>
  <rect x="370" y="94" width="14" height="14" rx="3" fill="#b388eb"/><text class="series" x="392" y="106">coder</text>
  <rect x="477" y="94" width="14" height="14" rx="3" fill="#e76f9a"/><text class="series" x="499" y="106">coder-stream</text>
  <text class="subtitle" x="1460" y="106" text-anchor="end">Each column uses its own linear scale; labels show throughput and allocations per message.</text>
  <g transform="translate(0,145)">
    <rect class="panel" x="25" y="0" width="1450" height="208" rx="10"/>
    <text class="group" x="45" y="27">64 B messages</text>
    <text class="contract" x="45" y="53">1 connection</text>
    <text class="series" x="195" y="81" text-anchor="end">ews</text>
    <rect x="207" y="68" width="100.0" height="17" rx="4" fill="#50c878"/>
    <text class="value" x="315.0" y="81">9 MB/s · 0 allocs</text>
    <text class="series" x="195" y="106" text-anchor="end">gws</text>
    <rect x="207" y="93" width="98.1" height="17" rx="4" fill="#ef8354"/>
    <text class="value" x="313.1" y="106">9 MB/s · 1 alloc</text>
    <text class="series" x="195" y="131" text-anchor="end">gws-stream</text>
    <rect x="207" y="118" width="92.5" height="17" rx="4" fill="#f2c14e"/>
    <text class="value" x="307.5" y="131">8 MB/s · 6 allocs</text>
    <text class="series" x="195" y="156" text-anchor="end">coder</text>
    <rect x="207" y="143" width="73.8" height="17" rx="4" fill="#b388eb"/>
    <text class="value" x="288.8" y="156">7 MB/s · 13 allocs</text>
    <text class="series" x="195" y="181" text-anchor="end">coder-stream</text>
    <rect x="207" y="168" width="65.7" height="17" rx="4" fill="#e76f9a"/>
    <text class="value" x="280.7" y="181">6 MB/s · 16 allocs</text>
    <text class="contract" x="515" y="53">128 connections</text>
    <text class="series" x="665" y="81" text-anchor="end">ews</text>
    <rect x="677" y="68" width="100.0" height="17" rx="4" fill="#50c878"/>
    <text class="value" x="785.0" y="81">79 MB/s · 0 allocs</text>
    <text class="series" x="665" y="106" text-anchor="end">gws</text>
    <rect x="677" y="93" width="85.6" height="17" rx="4" fill="#ef8354"/>
    <text class="value" x="770.6" y="106">68 MB/s · 1 alloc</text>
    <text class="series" x="665" y="131" text-anchor="end">gws-stream</text>
    <rect x="677" y="118" width="80.0" height="17" rx="4" fill="#f2c14e"/>
    <text class="value" x="765.0" y="131">63 MB/s · 6 allocs</text>
    <text class="series" x="665" y="156" text-anchor="end">coder</text>
    <rect x="677" y="143" width="69.0" height="17" rx="4" fill="#b388eb"/>
    <text class="value" x="754.0" y="156">54 MB/s · 13 allocs</text>
    <text class="series" x="665" y="181" text-anchor="end">coder-stream</text>
    <rect x="677" y="168" width="71.3" height="17" rx="4" fill="#e76f9a"/>
    <text class="value" x="756.3" y="181">56 MB/s · 16 allocs</text>
    <text class="contract" x="985" y="53">2048 connections</text>
    <text class="series" x="1135" y="81" text-anchor="end">ews</text>
    <rect x="1147" y="68" width="100.0" height="17" rx="4" fill="#50c878"/>
    <text class="value" x="1255.0" y="81">68 MB/s · 0 allocs</text>
    <text class="series" x="1135" y="106" text-anchor="end">gws</text>
    <rect x="1147" y="93" width="93.5" height="17" rx="4" fill="#ef8354"/>
    <text class="value" x="1248.5" y="106">64 MB/s · 1 alloc</text>
    <text class="series" x="1135" y="131" text-anchor="end">gws-stream</text>
    <rect x="1147" y="118" width="95.7" height="17" rx="4" fill="#f2c14e"/>
    <text class="value" x="1250.7" y="131">65 MB/s · 6 allocs</text>
    <text class="series" x="1135" y="156" text-anchor="end">coder</text>
    <rect x="1147" y="143" width="72.6" height="17" rx="4" fill="#b388eb"/>
    <text class="value" x="1227.6" y="156">50 MB/s · 13 allocs</text>
    <text class="series" x="1135" y="181" text-anchor="end">coder-stream</text>
    <rect x="1147" y="168" width="72.0" height="17" rx="4" fill="#e76f9a"/>
    <text class="value" x="1227.0" y="181">49 MB/s · 16 allocs</text>
  </g>
  <g transform="translate(0,369)">
    <rect class="panel" x="25" y="0" width="1450" height="208" rx="10"/>
    <text class="group" x="45" y="27">1 KiB messages</text>
    <text class="contract" x="45" y="53">1 connection</text>
    <text class="series" x="195" y="81" text-anchor="end">ews</text>
    <rect x="207" y="68" width="98.6" height="17" rx="4" fill="#50c878"/>
    <text class="value" x="313.6" y="81">137 MB/s · 0 allocs</text>
    <text class="series" x="195" y="106" text-anchor="end">gws</text>
    <rect x="207" y="93" width="100.0" height="17" rx="4" fill="#ef8354"/>
    <text class="value" x="315.0" y="106">139 MB/s · 1 alloc</text>
    <text class="series" x="195" y="131" text-anchor="end">gws-stream</text>
    <rect x="207" y="118" width="94.7" height="17" rx="4" fill="#f2c14e"/>
    <text class="value" x="309.7" y="131">132 MB/s · 6 allocs</text>
    <text class="series" x="195" y="156" text-anchor="end">coder</text>
    <rect x="207" y="143" width="43.8" height="17" rx="4" fill="#b388eb"/>
    <text class="value" x="258.8" y="156">61 MB/s · 24 allocs</text>
    <text class="series" x="195" y="181" text-anchor="end">coder-stream</text>
    <rect x="207" y="168" width="69.3" height="17" rx="4" fill="#e76f9a"/>
    <text class="value" x="284.3" y="181">96 MB/s · 16 allocs</text>
    <text class="contract" x="515" y="53">128 connections</text>
    <text class="series" x="665" y="81" text-anchor="end">ews</text>
    <rect x="677" y="68" width="100.0" height="17" rx="4" fill="#50c878"/>
    <text class="value" x="785.0" y="81">1.2 GB/s · 0 allocs</text>
    <text class="series" x="665" y="106" text-anchor="end">gws</text>
    <rect x="677" y="93" width="97.9" height="17" rx="4" fill="#ef8354"/>
    <text class="value" x="782.9" y="106">1.2 GB/s · 1 alloc</text>
    <text class="series" x="665" y="131" text-anchor="end">gws-stream</text>
    <rect x="677" y="118" width="97.5" height="17" rx="4" fill="#f2c14e"/>
    <text class="value" x="782.5" y="131">1.2 GB/s · 6 allocs</text>
    <text class="series" x="665" y="156" text-anchor="end">coder</text>
    <rect x="677" y="143" width="53.8" height="17" rx="4" fill="#b388eb"/>
    <text class="value" x="738.8" y="156">639 MB/s · 24 allocs</text>
    <text class="series" x="665" y="181" text-anchor="end">coder-stream</text>
    <rect x="677" y="168" width="70.7" height="17" rx="4" fill="#e76f9a"/>
    <text class="value" x="755.7" y="181">840 MB/s · 16 allocs</text>
    <text class="contract" x="985" y="53">2048 connections</text>
    <text class="series" x="1135" y="81" text-anchor="end">ews</text>
    <rect x="1147" y="68" width="97.9" height="17" rx="4" fill="#50c878"/>
    <text class="value" x="1252.9" y="81">910 MB/s · 0 allocs</text>
    <text class="series" x="1135" y="106" text-anchor="end">gws</text>
    <rect x="1147" y="93" width="100.0" height="17" rx="4" fill="#ef8354"/>
    <text class="value" x="1255.0" y="106">929 MB/s · 1 alloc</text>
    <text class="series" x="1135" y="131" text-anchor="end">gws-stream</text>
    <rect x="1147" y="118" width="90.0" height="17" rx="4" fill="#f2c14e"/>
    <text class="value" x="1245.0" y="131">836 MB/s · 6 allocs</text>
    <text class="series" x="1135" y="156" text-anchor="end">coder</text>
    <rect x="1147" y="143" width="63.1" height="17" rx="4" fill="#b388eb"/>
    <text class="value" x="1218.1" y="156">586 MB/s · 24 allocs</text>
    <text class="series" x="1135" y="181" text-anchor="end">coder-stream</text>
    <rect x="1147" y="168" width="71.6" height="17" rx="4" fill="#e76f9a"/>
    <text class="value" x="1226.6" y="181">665 MB/s · 16 allocs</text>
  </g>
  <g transform="translate(0,593)">
    <rect class="panel" x="25" y="0" width="1450" height="208" rx="10"/>
    <text class="group" x="45" y="27">16 KiB messages</text>
    <text class="contract" x="45" y="53">1 connection</text>
    <text class="series" x="195" y="81" text-anchor="end">ews</text>
    <rect x="207" y="68" width="100.0" height="17" rx="4" fill="#50c878"/>
    <text class="value" x="315.0" y="81">1.5 GB/s · 0 allocs</text>
    <text class="series" x="195" y="106" text-anchor="end">gws</text>
    <rect x="207" y="93" width="95.9" height="17" rx="4" fill="#ef8354"/>
    <text class="value" x="310.9" y="106">1.4 GB/s · 1 alloc</text>
    <text class="series" x="195" y="131" text-anchor="end">gws-stream</text>
    <rect x="207" y="118" width="94.9" height="17" rx="4" fill="#f2c14e"/>
    <text class="value" x="309.9" y="131">1.4 GB/s · 6 allocs</text>
    <text class="series" x="195" y="156" text-anchor="end">coder</text>
    <rect x="207" y="143" width="12.5" height="17" rx="4" fill="#b388eb"/>
    <text class="value" x="227.5" y="156">186 MB/s · 61 allocs</text>
    <text class="series" x="195" y="181" text-anchor="end">coder-stream</text>
    <rect x="207" y="168" width="51.9" height="17" rx="4" fill="#e76f9a"/>
    <text class="value" x="266.9" y="181">773 MB/s · 16 allocs</text>
    <text class="contract" x="515" y="53">128 connections</text>
    <text class="series" x="665" y="81" text-anchor="end">ews</text>
    <rect x="677" y="68" width="100.0" height="17" rx="4" fill="#50c878"/>
    <text class="value" x="785.0" y="81">11.2 GB/s · 0 allocs</text>
    <text class="series" x="665" y="106" text-anchor="end">gws</text>
    <rect x="677" y="93" width="97.5" height="17" rx="4" fill="#ef8354"/>
    <text class="value" x="782.5" y="106">10.9 GB/s · 1 alloc</text>
    <text class="series" x="665" y="131" text-anchor="end">gws-stream</text>
    <rect x="677" y="118" width="98.6" height="17" rx="4" fill="#f2c14e"/>
    <text class="value" x="783.6" y="131">11.0 GB/s · 6 allocs</text>
    <text class="series" x="665" y="156" text-anchor="end">coder</text>
    <rect x="677" y="143" width="20.9" height="17" rx="4" fill="#b388eb"/>
    <text class="value" x="705.9" y="156">2.3 GB/s · 61 allocs</text>
    <text class="series" x="665" y="181" text-anchor="end">coder-stream</text>
    <rect x="677" y="168" width="55.3" height="17" rx="4" fill="#e76f9a"/>
    <text class="value" x="740.3" y="181">6.2 GB/s · 16 allocs</text>
    <text class="contract" x="985" y="53">2048 connections</text>
    <text class="series" x="1135" y="81" text-anchor="end">ews</text>
    <rect x="1147" y="68" width="100.0" height="17" rx="4" fill="#50c878"/>
    <text class="value" x="1255.0" y="81">5.8 GB/s · 0 allocs</text>
    <text class="series" x="1135" y="106" text-anchor="end">gws</text>
    <rect x="1147" y="93" width="99.1" height="17" rx="4" fill="#ef8354"/>
    <text class="value" x="1254.1" y="106">5.7 GB/s · 1 alloc</text>
    <text class="series" x="1135" y="131" text-anchor="end">gws-stream</text>
    <rect x="1147" y="118" width="97.7" height="17" rx="4" fill="#f2c14e"/>
    <text class="value" x="1252.7" y="131">5.6 GB/s · 6 allocs</text>
    <text class="series" x="1135" y="156" text-anchor="end">coder</text>
    <rect x="1147" y="143" width="46.9" height="17" rx="4" fill="#b388eb"/>
    <text class="value" x="1201.9" y="156">2.7 GB/s · 61 allocs</text>
    <text class="series" x="1135" y="181" text-anchor="end">coder-stream</text>
    <rect x="1147" y="168" width="68.6" height="17" rx="4" fill="#e76f9a"/>
    <text class="value" x="1223.6" y="181">4.0 GB/s · 16 allocs</text>
  </g>
  <g transform="translate(0,817)">
    <rect class="panel" x="25" y="0" width="1450" height="208" rx="10"/>
    <text class="group" x="45" y="27">256 KiB messages</text>
    <text class="contract" x="45" y="53">1 connection</text>
    <text class="series" x="195" y="81" text-anchor="end">ews</text>
    <rect x="207" y="68" width="100.0" height="17" rx="4" fill="#50c878"/>
    <text class="value" x="315.0" y="81">3.2 GB/s · 0 allocs</text>
    <text class="series" x="195" y="106" text-anchor="end">gws</text>
    <rect x="207" y="93" width="19.2" height="17" rx="4" fill="#ef8354"/>
    <text class="value" x="234.2" y="106">608 MB/s · 6 allocs</text>
    <text class="series" x="195" y="131" text-anchor="end">gws-stream</text>
    <rect x="207" y="118" width="95.6" height="17" rx="4" fill="#f2c14e"/>
    <text class="value" x="310.6" y="131">3.0 GB/s · 12 allocs</text>
    <text class="series" x="195" y="156" text-anchor="end">coder</text>
    <rect x="207" y="143" width="13.8" height="17" rx="4" fill="#b388eb"/>
    <text class="value" x="228.8" y="156">437 MB/s · 97 allocs</text>
    <text class="series" x="195" y="181" text-anchor="end">coder-stream</text>
    <rect x="207" y="168" width="58.8" height="17" rx="4" fill="#e76f9a"/>
    <text class="value" x="273.8" y="181">1.9 GB/s · 72 allocs</text>
    <text class="contract" x="515" y="53">128 connections</text>
    <text class="series" x="665" y="81" text-anchor="end">ews</text>
    <rect x="677" y="68" width="100.0" height="17" rx="4" fill="#50c878"/>
    <text class="value" x="785.0" y="81">10.1 GB/s · 0 allocs</text>
    <text class="series" x="665" y="106" text-anchor="end">gws</text>
    <rect x="677" y="93" width="58.3" height="17" rx="4" fill="#ef8354"/>
    <text class="value" x="743.3" y="106">5.9 GB/s · 5 allocs</text>
    <text class="series" x="665" y="131" text-anchor="end">gws-stream</text>
    <rect x="677" y="118" width="95.8" height="17" rx="4" fill="#f2c14e"/>
    <text class="value" x="780.8" y="131">9.7 GB/s · 12 allocs</text>
    <text class="series" x="665" y="156" text-anchor="end">coder</text>
    <rect x="677" y="143" width="57.7" height="17" rx="4" fill="#b388eb"/>
    <text class="value" x="742.7" y="156">5.8 GB/s · 96 allocs</text>
    <text class="series" x="665" y="181" text-anchor="end">coder-stream</text>
    <rect x="677" y="168" width="88.9" height="17" rx="4" fill="#e76f9a"/>
    <text class="value" x="773.9" y="181">9.0 GB/s · 72 allocs</text>
    <text class="contract" x="985" y="53">2048 connections</text>
    <text class="series" x="1135" y="81" text-anchor="end">ews</text>
    <rect x="1147" y="68" width="99.9" height="17" rx="4" fill="#50c878"/>
    <text class="value" x="1254.9" y="81">7.6 GB/s · 0 allocs</text>
    <text class="series" x="1135" y="106" text-anchor="end">gws</text>
    <rect x="1147" y="93" width="66.9" height="17" rx="4" fill="#ef8354"/>
    <text class="value" x="1221.9" y="106">5.1 GB/s · 5 allocs</text>
    <text class="series" x="1135" y="131" text-anchor="end">gws-stream</text>
    <rect x="1147" y="118" width="100.0" height="17" rx="4" fill="#f2c14e"/>
    <text class="value" x="1255.0" y="131">7.6 GB/s · 12 allocs</text>
    <text class="series" x="1135" y="156" text-anchor="end">coder</text>
    <rect x="1147" y="143" width="61.5" height="17" rx="4" fill="#b388eb"/>
    <text class="value" x="1216.5" y="156">4.7 GB/s · 96 allocs</text>
    <text class="series" x="1135" y="181" text-anchor="end">coder-stream</text>
    <rect x="1147" y="168" width="95.7" height="17" rx="4" fill="#e76f9a"/>
    <text class="value" x="1250.7" y="181">7.3 GB/s · 72 allocs</text>
  </g>
</svg>
