<svg xmlns="http://www.w3.org/2000/svg" width="1500" height="1176" viewBox="0 0 1500 1176" role="img" aria-labelledby="title desc">
  <title id="title">Echo, compressed with context takeover</title>
  <desc id="desc">go1.27.0-X:simd · GOEXPERIMENT=simd · 13th Gen Intel i9-13900H · 500ms benchtime Higher is better.</desc>
  <style>text{font-family:ui-monospace,SFMono-Regular,Menlo,Consolas,monospace;fill:#d8dee9}.title{font-family:ui-sans-serif,system-ui,sans-serif;font-size:28px;font-weight:700}.subtitle{font-family:ui-sans-serif,system-ui,sans-serif;font-size:15px;fill:#aab4c3}.group{font-family:ui-sans-serif,system-ui,sans-serif;font-size:18px;font-weight:650}.contract{font-family:ui-sans-serif,system-ui,sans-serif;font-size:14px;font-weight:650;fill:#9eabbc}.series{font-size:13px;fill:#c4ccd8}.value{font-size:13px;font-weight:650}.panel{fill:#151c27}</style>
  <rect width="1500" height="1176" rx="14" fill="#10151d"/>
  <text class="title" x="40" y="48">Echo, compressed with context takeover</text>
  <text class="subtitle" x="40" y="76">go1.27.0-X:simd · GOEXPERIMENT=simd · 13th Gen Intel i9-13900H · 500ms benchtime · higher is better</text>
  <rect x="40" y="94" width="14" height="14" rx="3" fill="#50c878"/><text class="series" x="62" y="106">ews</text>
  <rect x="129" y="94" width="14" height="14" rx="3" fill="#5aa9e6"/><text class="series" x="151" y="106">ews-shared</text>
  <rect x="281" y="94" width="14" height="14" rx="3" fill="#ef8354"/><text class="series" x="303" y="106">gws</text>
  <rect x="370" y="94" width="14" height="14" rx="3" fill="#f2c14e"/><text class="series" x="392" y="106">gws-stream</text>
  <rect x="522" y="94" width="14" height="14" rx="3" fill="#b388eb"/><text class="series" x="544" y="106">coder</text>
  <rect x="629" y="94" width="14" height="14" rx="3" fill="#e76f9a"/><text class="series" x="651" y="106">coder-stream</text>
  <text class="subtitle" x="1460" y="106" text-anchor="end">Each column uses its own linear scale; labels show throughput and allocations per message.</text>
  <g transform="translate(0,145)">
    <rect class="panel" x="25" y="0" width="1450" height="233" rx="10"/>
    <text class="group" x="45" y="27">64 B messages</text>
    <text class="contract" x="45" y="53">1 connection</text>
    <text class="series" x="195" y="81" text-anchor="end">ews</text>
    <rect x="207" y="68" width="100.0" height="17" rx="4" fill="#50c878"/>
    <text class="value" x="315.0" y="81">5 MB/s · 0 allocs</text>
    <text class="series" x="195" y="106" text-anchor="end">ews-shared</text>
    <rect x="207" y="93" width="74.9" height="17" rx="4" fill="#5aa9e6"/>
    <text class="value" x="289.9" y="106">4 MB/s · 0 allocs</text>
    <text class="series" x="195" y="131" text-anchor="end">gws</text>
    <rect x="207" y="118" width="77.0" height="17" rx="4" fill="#ef8354"/>
    <text class="value" x="292.0" y="131">4 MB/s · 1 alloc</text>
    <text class="series" x="195" y="156" text-anchor="end">gws-stream</text>
    <rect x="207" y="143" width="73.3" height="17" rx="4" fill="#f2c14e"/>
    <text class="value" x="288.3" y="156">4 MB/s · 6 allocs</text>
    <text class="series" x="195" y="181" text-anchor="end">coder</text>
    <rect x="207" y="168" width="72.1" height="17" rx="4" fill="#b388eb"/>
    <text class="value" x="287.1" y="181">4 MB/s · 13 allocs</text>
    <text class="series" x="195" y="206" text-anchor="end">coder-stream</text>
    <rect x="207" y="193" width="68.3" height="17" rx="4" fill="#e76f9a"/>
    <text class="value" x="283.3" y="206">3 MB/s · 32 allocs</text>
    <text class="contract" x="515" y="53">128 connections</text>
    <text class="series" x="665" y="81" text-anchor="end">ews</text>
    <rect x="677" y="68" width="100.0" height="17" rx="4" fill="#50c878"/>
    <text class="value" x="785.0" y="81">37 MB/s · 0 allocs</text>
    <text class="series" x="665" y="106" text-anchor="end">ews-shared</text>
    <rect x="677" y="93" width="88.6" height="17" rx="4" fill="#5aa9e6"/>
    <text class="value" x="773.6" y="106">33 MB/s · 0 allocs</text>
    <text class="series" x="665" y="131" text-anchor="end">gws</text>
    <rect x="677" y="118" width="76.5" height="17" rx="4" fill="#ef8354"/>
    <text class="value" x="761.5" y="131">29 MB/s · 1 alloc</text>
    <text class="series" x="665" y="156" text-anchor="end">gws-stream</text>
    <rect x="677" y="143" width="78.5" height="17" rx="4" fill="#f2c14e"/>
    <text class="value" x="763.5" y="156">29 MB/s · 6 allocs</text>
    <text class="series" x="665" y="181" text-anchor="end">coder</text>
    <rect x="677" y="168" width="81.8" height="17" rx="4" fill="#b388eb"/>
    <text class="value" x="766.8" y="181">30 MB/s · 13 allocs</text>
    <text class="series" x="665" y="206" text-anchor="end">coder-stream</text>
    <rect x="677" y="193" width="74.8" height="17" rx="4" fill="#e76f9a"/>
    <text class="value" x="759.8" y="206">28 MB/s · 32 allocs</text>
    <text class="contract" x="985" y="53">2048 connections</text>
    <text class="series" x="1135" y="81" text-anchor="end">ews</text>
    <rect x="1147" y="68" width="100.0" height="17" rx="4" fill="#50c878"/>
    <text class="value" x="1255.0" y="81">32 MB/s · 0 allocs</text>
    <text class="series" x="1135" y="106" text-anchor="end">ews-shared</text>
    <rect x="1147" y="93" width="96.0" height="17" rx="4" fill="#5aa9e6"/>
    <text class="value" x="1251.0" y="106">31 MB/s · 0 allocs</text>
    <text class="series" x="1135" y="131" text-anchor="end">gws</text>
    <rect x="1147" y="118" width="95.3" height="17" rx="4" fill="#ef8354"/>
    <text class="value" x="1250.3" y="131">31 MB/s · 1 alloc</text>
    <text class="series" x="1135" y="156" text-anchor="end">gws-stream</text>
    <rect x="1147" y="143" width="95.2" height="17" rx="4" fill="#f2c14e"/>
    <text class="value" x="1250.2" y="156">31 MB/s · 6 allocs</text>
    <text class="series" x="1135" y="181" text-anchor="end">coder</text>
    <rect x="1147" y="168" width="82.6" height="17" rx="4" fill="#b388eb"/>
    <text class="value" x="1237.6" y="181">27 MB/s · 13 allocs</text>
    <text class="series" x="1135" y="206" text-anchor="end">coder-stream</text>
    <rect x="1147" y="193" width="76.4" height="17" rx="4" fill="#e76f9a"/>
    <text class="value" x="1231.4" y="206">25 MB/s · 32 allocs</text>
  </g>
  <g transform="translate(0,394)">
    <rect class="panel" x="25" y="0" width="1450" height="233" rx="10"/>
    <text class="group" x="45" y="27">1 KiB messages</text>
    <text class="contract" x="45" y="53">1 connection</text>
    <text class="series" x="195" y="81" text-anchor="end">ews</text>
    <rect x="207" y="68" width="100.0" height="17" rx="4" fill="#50c878"/>
    <text class="value" x="315.0" y="81">76 MB/s · 0 allocs</text>
    <text class="series" x="195" y="106" text-anchor="end">ews-shared</text>
    <rect x="207" y="93" width="81.7" height="17" rx="4" fill="#5aa9e6"/>
    <text class="value" x="296.7" y="106">62 MB/s · 0 allocs</text>
    <text class="series" x="195" y="131" text-anchor="end">gws</text>
    <rect x="207" y="118" width="77.7" height="17" rx="4" fill="#ef8354"/>
    <text class="value" x="292.7" y="131">59 MB/s · 1 alloc</text>
    <text class="series" x="195" y="156" text-anchor="end">gws-stream</text>
    <rect x="207" y="143" width="76.2" height="17" rx="4" fill="#f2c14e"/>
    <text class="value" x="291.2" y="156">58 MB/s · 6 allocs</text>
    <text class="series" x="195" y="181" text-anchor="end">coder</text>
    <rect x="207" y="168" width="62.5" height="17" rx="4" fill="#b388eb"/>
    <text class="value" x="277.5" y="181">48 MB/s · 16 allocs</text>
    <text class="series" x="195" y="206" text-anchor="end">coder-stream</text>
    <rect x="207" y="193" width="77.3" height="17" rx="4" fill="#e76f9a"/>
    <text class="value" x="292.3" y="206">59 MB/s · 20 allocs</text>
    <text class="contract" x="515" y="53">128 connections</text>
    <text class="series" x="665" y="81" text-anchor="end">ews</text>
    <rect x="677" y="68" width="100.0" height="17" rx="4" fill="#50c878"/>
    <text class="value" x="785.0" y="81">512 MB/s · 0 allocs</text>
    <text class="series" x="665" y="106" text-anchor="end">ews-shared</text>
    <rect x="677" y="93" width="84.7" height="17" rx="4" fill="#5aa9e6"/>
    <text class="value" x="769.7" y="106">433 MB/s · 0 allocs</text>
    <text class="series" x="665" y="131" text-anchor="end">gws</text>
    <rect x="677" y="118" width="72.0" height="17" rx="4" fill="#ef8354"/>
    <text class="value" x="757.0" y="131">368 MB/s · 1 alloc</text>
    <text class="series" x="665" y="156" text-anchor="end">gws-stream</text>
    <rect x="677" y="143" width="74.5" height="17" rx="4" fill="#f2c14e"/>
    <text class="value" x="759.5" y="156">381 MB/s · 6 allocs</text>
    <text class="series" x="665" y="181" text-anchor="end">coder</text>
    <rect x="677" y="168" width="81.2" height="17" rx="4" fill="#b388eb"/>
    <text class="value" x="766.2" y="181">416 MB/s · 16 allocs</text>
    <text class="series" x="665" y="206" text-anchor="end">coder-stream</text>
    <rect x="677" y="193" width="85.3" height="17" rx="4" fill="#e76f9a"/>
    <text class="value" x="770.3" y="206">436 MB/s · 20 allocs</text>
    <text class="contract" x="985" y="53">2048 connections</text>
    <text class="series" x="1135" y="81" text-anchor="end">ews</text>
    <rect x="1147" y="68" width="100.0" height="17" rx="4" fill="#50c878"/>
    <text class="value" x="1255.0" y="81">317 MB/s · 0 allocs</text>
    <text class="series" x="1135" y="106" text-anchor="end">ews-shared</text>
    <rect x="1147" y="93" width="90.7" height="17" rx="4" fill="#5aa9e6"/>
    <text class="value" x="1245.7" y="106">288 MB/s · 0 allocs</text>
    <text class="series" x="1135" y="131" text-anchor="end">gws</text>
    <rect x="1147" y="118" width="70.5" height="17" rx="4" fill="#ef8354"/>
    <text class="value" x="1225.5" y="131">224 MB/s · 1 alloc</text>
    <text class="series" x="1135" y="156" text-anchor="end">gws-stream</text>
    <rect x="1147" y="143" width="71.3" height="17" rx="4" fill="#f2c14e"/>
    <text class="value" x="1226.3" y="156">226 MB/s · 6 allocs</text>
    <text class="series" x="1135" y="181" text-anchor="end">coder</text>
    <rect x="1147" y="168" width="77.5" height="17" rx="4" fill="#b388eb"/>
    <text class="value" x="1232.5" y="181">246 MB/s · 16 allocs</text>
    <text class="series" x="1135" y="206" text-anchor="end">coder-stream</text>
    <rect x="1147" y="193" width="81.7" height="17" rx="4" fill="#e76f9a"/>
    <text class="value" x="1236.7" y="206">259 MB/s · 20 allocs</text>
  </g>
  <g transform="translate(0,643)">
    <rect class="panel" x="25" y="0" width="1450" height="233" rx="10"/>
    <text class="group" x="45" y="27">16 KiB messages</text>
    <text class="contract" x="45" y="53">1 connection</text>
    <text class="series" x="195" y="81" text-anchor="end">ews</text>
    <rect x="207" y="68" width="100.0" height="17" rx="4" fill="#50c878"/>
    <text class="value" x="315.0" y="81">648 MB/s · 0 allocs</text>
    <text class="series" x="195" y="106" text-anchor="end">ews-shared</text>
    <rect x="207" y="93" width="91.7" height="17" rx="4" fill="#5aa9e6"/>
    <text class="value" x="306.7" y="106">595 MB/s · 0 allocs</text>
    <text class="series" x="195" y="131" text-anchor="end">gws</text>
    <rect x="207" y="118" width="89.3" height="17" rx="4" fill="#ef8354"/>
    <text class="value" x="304.3" y="131">579 MB/s · 1 alloc</text>
    <text class="series" x="195" y="156" text-anchor="end">gws-stream</text>
    <rect x="207" y="143" width="88.3" height="17" rx="4" fill="#f2c14e"/>
    <text class="value" x="303.3" y="156">573 MB/s · 6 allocs</text>
    <text class="series" x="195" y="181" text-anchor="end">coder</text>
    <rect x="207" y="168" width="25.5" height="17" rx="4" fill="#b388eb"/>
    <text class="value" x="240.5" y="181">166 MB/s · 25 allocs</text>
    <text class="series" x="195" y="206" text-anchor="end">coder-stream</text>
    <rect x="207" y="193" width="80.2" height="17" rx="4" fill="#e76f9a"/>
    <text class="value" x="295.2" y="206">520 MB/s · 20 allocs</text>
    <text class="contract" x="515" y="53">128 connections</text>
    <text class="series" x="665" y="81" text-anchor="end">ews</text>
    <rect x="677" y="68" width="97.8" height="17" rx="4" fill="#50c878"/>
    <text class="value" x="782.8" y="81">3.1 GB/s · 0 allocs</text>
    <text class="series" x="665" y="106" text-anchor="end">ews-shared</text>
    <rect x="677" y="93" width="99.8" height="17" rx="4" fill="#5aa9e6"/>
    <text class="value" x="784.8" y="106">3.2 GB/s · 0 allocs</text>
    <text class="series" x="665" y="131" text-anchor="end">gws</text>
    <rect x="677" y="118" width="94.3" height="17" rx="4" fill="#ef8354"/>
    <text class="value" x="779.3" y="131">3.0 GB/s · 1 alloc</text>
    <text class="series" x="665" y="156" text-anchor="end">gws-stream</text>
    <rect x="677" y="143" width="100.0" height="17" rx="4" fill="#f2c14e"/>
    <text class="value" x="785.0" y="156">3.2 GB/s · 6 allocs</text>
    <text class="series" x="665" y="181" text-anchor="end">coder</text>
    <rect x="677" y="168" width="76.7" height="17" rx="4" fill="#b388eb"/>
    <text class="value" x="761.7" y="181">2.5 GB/s · 25 allocs</text>
    <text class="series" x="665" y="206" text-anchor="end">coder-stream</text>
    <rect x="677" y="193" width="91.1" height="17" rx="4" fill="#e76f9a"/>
    <text class="value" x="776.1" y="206">2.9 GB/s · 20 allocs</text>
    <text class="contract" x="985" y="53">2048 connections</text>
    <text class="series" x="1135" y="81" text-anchor="end">ews</text>
    <rect x="1147" y="68" width="89.2" height="17" rx="4" fill="#50c878"/>
    <text class="value" x="1244.2" y="81">2.1 GB/s · 0 allocs</text>
    <text class="series" x="1135" y="106" text-anchor="end">ews-shared</text>
    <rect x="1147" y="93" width="100.0" height="17" rx="4" fill="#5aa9e6"/>
    <text class="value" x="1255.0" y="106">2.4 GB/s · 0 allocs</text>
    <text class="series" x="1135" y="131" text-anchor="end">gws</text>
    <rect x="1147" y="118" width="88.7" height="17" rx="4" fill="#ef8354"/>
    <text class="value" x="1243.7" y="131">2.1 GB/s · 1 alloc</text>
    <text class="series" x="1135" y="156" text-anchor="end">gws-stream</text>
    <rect x="1147" y="143" width="88.9" height="17" rx="4" fill="#f2c14e"/>
    <text class="value" x="1243.9" y="156">2.1 GB/s · 6 allocs</text>
    <text class="series" x="1135" y="181" text-anchor="end">coder</text>
    <rect x="1147" y="168" width="65.6" height="17" rx="4" fill="#b388eb"/>
    <text class="value" x="1220.6" y="181">1.6 GB/s · 25 allocs</text>
    <text class="series" x="1135" y="206" text-anchor="end">coder-stream</text>
    <rect x="1147" y="193" width="80.4" height="17" rx="4" fill="#e76f9a"/>
    <text class="value" x="1235.4" y="206">1.9 GB/s · 20 allocs</text>
  </g>
  <g transform="translate(0,892)">
    <rect class="panel" x="25" y="0" width="1450" height="233" rx="10"/>
    <text class="group" x="45" y="27">256 KiB messages</text>
    <text class="contract" x="45" y="53">1 connection</text>
    <text class="series" x="195" y="81" text-anchor="end">ews</text>
    <rect x="207" y="68" width="95.8" height="17" rx="4" fill="#50c878"/>
    <text class="value" x="310.8" y="81">1.4 GB/s · 0 allocs</text>
    <text class="series" x="195" y="106" text-anchor="end">ews-shared</text>
    <rect x="207" y="93" width="100.0" height="17" rx="4" fill="#5aa9e6"/>
    <text class="value" x="315.0" y="106">1.5 GB/s · 0 allocs</text>
    <text class="series" x="195" y="131" text-anchor="end">gws</text>
    <rect x="207" y="118" width="24.3" height="17" rx="4" fill="#ef8354"/>
    <text class="value" x="239.3" y="131">354 MB/s · 19 allocs</text>
    <text class="series" x="195" y="156" text-anchor="end">gws-stream</text>
    <rect x="207" y="143" width="24.7" height="17" rx="4" fill="#f2c14e"/>
    <text class="value" x="239.7" y="156">361 MB/s · 22 allocs</text>
    <text class="series" x="195" y="181" text-anchor="end">coder</text>
    <rect x="207" y="168" width="17.4" height="17" rx="4" fill="#b388eb"/>
    <text class="value" x="232.4" y="181">254 MB/s · 39 allocs</text>
    <text class="series" x="195" y="206" text-anchor="end">coder-stream</text>
    <rect x="207" y="193" width="88.3" height="17" rx="4" fill="#e76f9a"/>
    <text class="value" x="303.3" y="206">1.3 GB/s · 56 allocs</text>
    <text class="contract" x="515" y="53">128 connections</text>
    <text class="series" x="665" y="81" text-anchor="end">ews</text>
    <rect x="677" y="68" width="89.0" height="17" rx="4" fill="#50c878"/>
    <text class="value" x="774.0" y="81">9.7 GB/s · 0 allocs</text>
    <text class="series" x="665" y="106" text-anchor="end">ews-shared</text>
    <rect x="677" y="93" width="100.0" height="17" rx="4" fill="#5aa9e6"/>
    <text class="value" x="785.0" y="106">10.9 GB/s · 0 allocs</text>
    <text class="series" x="665" y="131" text-anchor="end">gws</text>
    <rect x="677" y="118" width="33.9" height="17" rx="4" fill="#ef8354"/>
    <text class="value" x="718.9" y="131">3.7 GB/s · 17 allocs</text>
    <text class="series" x="665" y="156" text-anchor="end">gws-stream</text>
    <rect x="677" y="143" width="34.5" height="17" rx="4" fill="#f2c14e"/>
    <text class="value" x="719.5" y="156">3.8 GB/s · 20 allocs</text>
    <text class="series" x="665" y="181" text-anchor="end">coder</text>
    <rect x="677" y="168" width="48.1" height="17" rx="4" fill="#b388eb"/>
    <text class="value" x="733.1" y="181">5.2 GB/s · 32 allocs</text>
    <text class="series" x="665" y="206" text-anchor="end">coder-stream</text>
    <rect x="677" y="193" width="84.4" height="17" rx="4" fill="#e76f9a"/>
    <text class="value" x="769.4" y="206">9.2 GB/s · 56 allocs</text>
    <text class="contract" x="985" y="53">2048 connections</text>
    <text class="series" x="1135" y="81" text-anchor="end">ews</text>
    <rect x="1147" y="68" width="96.2" height="17" rx="4" fill="#50c878"/>
    <text class="value" x="1251.2" y="81">8.9 GB/s · 0 allocs</text>
    <text class="series" x="1135" y="106" text-anchor="end">ews-shared</text>
    <rect x="1147" y="93" width="100.0" height="17" rx="4" fill="#5aa9e6"/>
    <text class="value" x="1255.0" y="106">9.2 GB/s · 0 allocs</text>
    <text class="series" x="1135" y="131" text-anchor="end">gws</text>
    <rect x="1147" y="118" width="38.7" height="17" rx="4" fill="#ef8354"/>
    <text class="value" x="1193.7" y="131">3.6 GB/s · 20 allocs</text>
    <text class="series" x="1135" y="156" text-anchor="end">gws-stream</text>
    <rect x="1147" y="143" width="28.0" height="17" rx="4" fill="#f2c14e"/>
    <text class="value" x="1183.0" y="156">2.6 GB/s · 25 allocs</text>
    <text class="series" x="1135" y="181" text-anchor="end">coder</text>
    <rect x="1147" y="168" width="39.4" height="17" rx="4" fill="#b388eb"/>
    <text class="value" x="1194.4" y="181">3.6 GB/s · 33 allocs</text>
    <text class="series" x="1135" y="206" text-anchor="end">coder-stream</text>
    <rect x="1147" y="193" width="91.7" height="17" rx="4" fill="#e76f9a"/>
    <text class="value" x="1246.7" y="206">8.5 GB/s · 56 allocs</text>
  </g>
</svg>
