<svg xmlns="http://www.w3.org/2000/svg" width="1500" height="1276" viewBox="0 0 1500 1276" role="img" aria-labelledby="title desc">
  <title id="title">Echo, compressed with context takeover</title>
  <desc id="desc">go1.27.0-X:simd · GOEXPERIMENT=simd · 13th Gen Intel i9-13900H · 500ms benchtime Higher is better.</desc>
  <style>text{font-family:ui-monospace,SFMono-Regular,Menlo,Consolas,monospace;fill:#d8dee9}.title{font-family:ui-sans-serif,system-ui,sans-serif;font-size:28px;font-weight:700}.subtitle{font-family:ui-sans-serif,system-ui,sans-serif;font-size:15px;fill:#aab4c3}.group{font-family:ui-sans-serif,system-ui,sans-serif;font-size:18px;font-weight:650}.contract{font-family:ui-sans-serif,system-ui,sans-serif;font-size:14px;font-weight:650;fill:#9eabbc}.series{font-size:13px;fill:#c4ccd8}.value{font-size:13px;font-weight:650}.panel{fill:#151c27}</style>
  <rect width="1500" height="1276" rx="14" fill="#10151d"/>
  <text class="title" x="40" y="48">Echo, compressed with context takeover</text>
  <text class="subtitle" x="40" y="76">go1.27.0-X:simd · GOEXPERIMENT=simd · 13th Gen Intel i9-13900H · 500ms benchtime · higher is better</text>
  <rect x="40" y="94" width="14" height="14" rx="3" fill="#50c878"/><text class="series" x="62" y="106">ews</text>
  <rect x="129" y="94" width="14" height="14" rx="3" fill="#5aa9e6"/><text class="series" x="151" y="106">ews-shared</text>
  <rect x="281" y="94" width="14" height="14" rx="3" fill="#a3e4b0"/><text class="series" x="303" y="106">ews-stream</text>
  <rect x="433" y="94" width="14" height="14" rx="3" fill="#ef8354"/><text class="series" x="455" y="106">gws</text>
  <rect x="522" y="94" width="14" height="14" rx="3" fill="#f2c14e"/><text class="series" x="544" y="106">gws-stream</text>
  <rect x="674" y="94" width="14" height="14" rx="3" fill="#b388eb"/><text class="series" x="696" y="106">coder</text>
  <rect x="781" y="94" width="14" height="14" rx="3" fill="#e76f9a"/><text class="series" x="803" y="106">coder-stream</text>
  <text class="subtitle" x="1460" y="106" text-anchor="end">Each column uses its own linear scale; labels show throughput and allocations per message.</text>
  <g transform="translate(0,145)">
    <rect class="panel" x="25" y="0" width="1450" height="258" rx="10"/>
    <text class="group" x="45" y="27">64 B messages</text>
    <text class="contract" x="45" y="53">1 connection</text>
    <text class="series" x="195" y="81" text-anchor="end">ews</text>
    <rect x="207" y="68" width="100.0" height="17" rx="4" fill="#50c878"/>
    <text class="value" x="315.0" y="81">5 MB/s · 0 allocs</text>
    <text class="series" x="195" y="106" text-anchor="end">ews-shared</text>
    <rect x="207" y="93" width="81.5" height="17" rx="4" fill="#5aa9e6"/>
    <text class="value" x="296.5" y="106">4 MB/s · 0 allocs</text>
    <text class="series" x="195" y="131" text-anchor="end">ews-stream</text>
    <rect x="207" y="118" width="90.9" height="17" rx="4" fill="#a3e4b0"/>
    <text class="value" x="305.9" y="131">5 MB/s · 0 allocs</text>
    <text class="series" x="195" y="156" text-anchor="end">gws</text>
    <rect x="207" y="143" width="77.2" height="17" rx="4" fill="#ef8354"/>
    <text class="value" x="292.2" y="156">4 MB/s · 1 alloc</text>
    <text class="series" x="195" y="181" text-anchor="end">gws-stream</text>
    <rect x="207" y="168" width="73.3" height="17" rx="4" fill="#f2c14e"/>
    <text class="value" x="288.3" y="181">4 MB/s · 6 allocs</text>
    <text class="series" x="195" y="206" text-anchor="end">coder</text>
    <rect x="207" y="193" width="69.6" height="17" rx="4" fill="#b388eb"/>
    <text class="value" x="284.6" y="206">4 MB/s · 13 allocs</text>
    <text class="series" x="195" y="231" text-anchor="end">coder-stream</text>
    <rect x="207" y="218" width="59.9" height="17" rx="4" fill="#e76f9a"/>
    <text class="value" x="274.9" y="231">3 MB/s · 32 allocs</text>
    <text class="contract" x="515" y="53">128 connections</text>
    <text class="series" x="665" y="81" text-anchor="end">ews</text>
    <rect x="677" y="68" width="97.3" height="17" rx="4" fill="#50c878"/>
    <text class="value" x="782.3" y="81">41 MB/s · 0 allocs</text>
    <text class="series" x="665" y="106" text-anchor="end">ews-shared</text>
    <rect x="677" y="93" width="81.3" height="17" rx="4" fill="#5aa9e6"/>
    <text class="value" x="766.3" y="106">35 MB/s · 0 allocs</text>
    <text class="series" x="665" y="131" text-anchor="end">ews-stream</text>
    <rect x="677" y="118" width="100.0" height="17" rx="4" fill="#a3e4b0"/>
    <text class="value" x="785.0" y="131">43 MB/s · 0 allocs</text>
    <text class="series" x="665" y="156" text-anchor="end">gws</text>
    <rect x="677" y="143" width="72.7" height="17" rx="4" fill="#ef8354"/>
    <text class="value" x="757.7" y="156">31 MB/s · 1 alloc</text>
    <text class="series" x="665" y="181" text-anchor="end">gws-stream</text>
    <rect x="677" y="168" width="75.3" height="17" rx="4" fill="#f2c14e"/>
    <text class="value" x="760.3" y="181">32 MB/s · 6 allocs</text>
    <text class="series" x="665" y="206" text-anchor="end">coder</text>
    <rect x="677" y="193" width="80.7" height="17" rx="4" fill="#b388eb"/>
    <text class="value" x="765.7" y="206">34 MB/s · 13 allocs</text>
    <text class="series" x="665" y="231" text-anchor="end">coder-stream</text>
    <rect x="677" y="218" width="68.5" height="17" rx="4" fill="#e76f9a"/>
    <text class="value" x="753.5" y="231">29 MB/s · 32 allocs</text>
    <text class="contract" x="985" y="53">2048 connections</text>
    <text class="series" x="1135" y="81" text-anchor="end">ews</text>
    <rect x="1147" y="68" width="100.0" height="17" rx="4" fill="#50c878"/>
    <text class="value" x="1255.0" y="81">35 MB/s · 0 allocs</text>
    <text class="series" x="1135" y="106" text-anchor="end">ews-shared</text>
    <rect x="1147" y="93" width="94.3" height="17" rx="4" fill="#5aa9e6"/>
    <text class="value" x="1249.3" y="106">33 MB/s · 0 allocs</text>
    <text class="series" x="1135" y="131" text-anchor="end">ews-stream</text>
    <rect x="1147" y="118" width="98.3" height="17" rx="4" fill="#a3e4b0"/>
    <text class="value" x="1253.3" y="131">34 MB/s · 0 allocs</text>
    <text class="series" x="1135" y="156" text-anchor="end">gws</text>
    <rect x="1147" y="143" width="97.2" height="17" rx="4" fill="#ef8354"/>
    <text class="value" x="1252.2" y="156">34 MB/s · 1 alloc</text>
    <text class="series" x="1135" y="181" text-anchor="end">gws-stream</text>
    <rect x="1147" y="168" width="94.8" height="17" rx="4" fill="#f2c14e"/>
    <text class="value" x="1249.8" y="181">33 MB/s · 6 allocs</text>
    <text class="series" x="1135" y="206" text-anchor="end">coder</text>
    <rect x="1147" y="193" width="81.6" height="17" rx="4" fill="#b388eb"/>
    <text class="value" x="1236.6" y="206">29 MB/s · 13 allocs</text>
    <text class="series" x="1135" y="231" text-anchor="end">coder-stream</text>
    <rect x="1147" y="218" width="68.1" height="17" rx="4" fill="#e76f9a"/>
    <text class="value" x="1223.1" y="231">24 MB/s · 32 allocs</text>
  </g>
  <g transform="translate(0,419)">
    <rect class="panel" x="25" y="0" width="1450" height="258" rx="10"/>
    <text class="group" x="45" y="27">1 KiB messages</text>
    <text class="contract" x="45" y="53">1 connection</text>
    <text class="series" x="195" y="81" text-anchor="end">ews</text>
    <rect x="207" y="68" width="95.1" height="17" rx="4" fill="#50c878"/>
    <text class="value" x="310.1" y="81">72 MB/s · 0 allocs</text>
    <text class="series" x="195" y="106" text-anchor="end">ews-shared</text>
    <rect x="207" y="93" width="79.0" height="17" rx="4" fill="#5aa9e6"/>
    <text class="value" x="294.0" y="106">60 MB/s · 0 allocs</text>
    <text class="series" x="195" y="131" text-anchor="end">ews-stream</text>
    <rect x="207" y="118" width="100.0" height="17" rx="4" fill="#a3e4b0"/>
    <text class="value" x="315.0" y="131">76 MB/s · 0 allocs</text>
    <text class="series" x="195" y="156" text-anchor="end">gws</text>
    <rect x="207" y="143" width="74.8" height="17" rx="4" fill="#ef8354"/>
    <text class="value" x="289.8" y="156">57 MB/s · 1 alloc</text>
    <text class="series" x="195" y="181" text-anchor="end">gws-stream</text>
    <rect x="207" y="168" width="72.5" height="17" rx="4" fill="#f2c14e"/>
    <text class="value" x="287.5" y="181">55 MB/s · 6 allocs</text>
    <text class="series" x="195" y="206" text-anchor="end">coder</text>
    <rect x="207" y="193" width="64.4" height="17" rx="4" fill="#b388eb"/>
    <text class="value" x="279.4" y="206">49 MB/s · 16 allocs</text>
    <text class="series" x="195" y="231" text-anchor="end">coder-stream</text>
    <rect x="207" y="218" width="80.8" height="17" rx="4" fill="#e76f9a"/>
    <text class="value" x="295.8" y="231">61 MB/s · 20 allocs</text>
    <text class="contract" x="515" y="53">128 connections</text>
    <text class="series" x="665" y="81" text-anchor="end">ews</text>
    <rect x="677" y="68" width="100.0" height="17" rx="4" fill="#50c878"/>
    <text class="value" x="785.0" y="81">603 MB/s · 0 allocs</text>
    <text class="series" x="665" y="106" text-anchor="end">ews-shared</text>
    <rect x="677" y="93" width="79.2" height="17" rx="4" fill="#5aa9e6"/>
    <text class="value" x="764.2" y="106">478 MB/s · 0 allocs</text>
    <text class="series" x="665" y="131" text-anchor="end">ews-stream</text>
    <rect x="677" y="118" width="90.9" height="17" rx="4" fill="#a3e4b0"/>
    <text class="value" x="775.9" y="131">549 MB/s · 0 allocs</text>
    <text class="series" x="665" y="156" text-anchor="end">gws</text>
    <rect x="677" y="143" width="69.2" height="17" rx="4" fill="#ef8354"/>
    <text class="value" x="754.2" y="156">418 MB/s · 1 alloc</text>
    <text class="series" x="665" y="181" text-anchor="end">gws-stream</text>
    <rect x="677" y="168" width="71.9" height="17" rx="4" fill="#f2c14e"/>
    <text class="value" x="756.9" y="181">434 MB/s · 6 allocs</text>
    <text class="series" x="665" y="206" text-anchor="end">coder</text>
    <rect x="677" y="193" width="74.0" height="17" rx="4" fill="#b388eb"/>
    <text class="value" x="759.0" y="206">446 MB/s · 16 allocs</text>
    <text class="series" x="665" y="231" text-anchor="end">coder-stream</text>
    <rect x="677" y="218" width="77.6" height="17" rx="4" fill="#e76f9a"/>
    <text class="value" x="762.6" y="231">468 MB/s · 20 allocs</text>
    <text class="contract" x="985" y="53">2048 connections</text>
    <text class="series" x="1135" y="81" text-anchor="end">ews</text>
    <rect x="1147" y="68" width="94.8" height="17" rx="4" fill="#50c878"/>
    <text class="value" x="1249.8" y="81">305 MB/s · 0 allocs</text>
    <text class="series" x="1135" y="106" text-anchor="end">ews-shared</text>
    <rect x="1147" y="93" width="87.4" height="17" rx="4" fill="#5aa9e6"/>
    <text class="value" x="1242.4" y="106">281 MB/s · 0 allocs</text>
    <text class="series" x="1135" y="131" text-anchor="end">ews-stream</text>
    <rect x="1147" y="118" width="100.0" height="17" rx="4" fill="#a3e4b0"/>
    <text class="value" x="1255.0" y="131">322 MB/s · 0 allocs</text>
    <text class="series" x="1135" y="156" text-anchor="end">gws</text>
    <rect x="1147" y="143" width="69.0" height="17" rx="4" fill="#ef8354"/>
    <text class="value" x="1224.0" y="156">222 MB/s · 1 alloc</text>
    <text class="series" x="1135" y="181" text-anchor="end">gws-stream</text>
    <rect x="1147" y="168" width="76.4" height="17" rx="4" fill="#f2c14e"/>
    <text class="value" x="1231.4" y="181">246 MB/s · 6 allocs</text>
    <text class="series" x="1135" y="206" text-anchor="end">coder</text>
    <rect x="1147" y="193" width="75.3" height="17" rx="4" fill="#b388eb"/>
    <text class="value" x="1230.3" y="206">242 MB/s · 16 allocs</text>
    <text class="series" x="1135" y="231" text-anchor="end">coder-stream</text>
    <rect x="1147" y="218" width="75.8" height="17" rx="4" fill="#e76f9a"/>
    <text class="value" x="1230.8" y="231">244 MB/s · 20 allocs</text>
  </g>
  <g transform="translate(0,693)">
    <rect class="panel" x="25" y="0" width="1450" height="258" rx="10"/>
    <text class="group" x="45" y="27">16 KiB messages</text>
    <text class="contract" x="45" y="53">1 connection</text>
    <text class="series" x="195" y="81" text-anchor="end">ews</text>
    <rect x="207" y="68" width="93.2" height="17" rx="4" fill="#50c878"/>
    <text class="value" x="308.2" y="81">617 MB/s · 0 allocs</text>
    <text class="series" x="195" y="106" text-anchor="end">ews-shared</text>
    <rect x="207" y="93" width="90.4" height="17" rx="4" fill="#5aa9e6"/>
    <text class="value" x="305.4" y="106">598 MB/s · 0 allocs</text>
    <text class="series" x="195" y="131" text-anchor="end">ews-stream</text>
    <rect x="207" y="118" width="100.0" height="17" rx="4" fill="#a3e4b0"/>
    <text class="value" x="315.0" y="131">661 MB/s · 0 allocs</text>
    <text class="series" x="195" y="156" text-anchor="end">gws</text>
    <rect x="207" y="143" width="87.3" height="17" rx="4" fill="#ef8354"/>
    <text class="value" x="302.3" y="156">577 MB/s · 1 alloc</text>
    <text class="series" x="195" y="181" text-anchor="end">gws-stream</text>
    <rect x="207" y="168" width="88.0" height="17" rx="4" fill="#f2c14e"/>
    <text class="value" x="303.0" y="181">582 MB/s · 6 allocs</text>
    <text class="series" x="195" y="206" text-anchor="end">coder</text>
    <rect x="207" y="193" width="23.3" height="17" rx="4" fill="#b388eb"/>
    <text class="value" x="238.3" y="206">154 MB/s · 25 allocs</text>
    <text class="series" x="195" y="231" text-anchor="end">coder-stream</text>
    <rect x="207" y="218" width="86.1" height="17" rx="4" fill="#e76f9a"/>
    <text class="value" x="301.1" y="231">570 MB/s · 20 allocs</text>
    <text class="contract" x="515" y="53">128 connections</text>
    <text class="series" x="665" y="81" text-anchor="end">ews</text>
    <rect x="677" y="68" width="92.9" height="17" rx="4" fill="#50c878"/>
    <text class="value" x="777.9" y="81">3.2 GB/s · 0 allocs</text>
    <text class="series" x="665" y="106" text-anchor="end">ews-shared</text>
    <rect x="677" y="93" width="88.0" height="17" rx="4" fill="#5aa9e6"/>
    <text class="value" x="773.0" y="106">3.0 GB/s · 0 allocs</text>
    <text class="series" x="665" y="131" text-anchor="end">ews-stream</text>
    <rect x="677" y="118" width="86.8" height="17" rx="4" fill="#a3e4b0"/>
    <text class="value" x="771.8" y="131">3.0 GB/s · 0 allocs</text>
    <text class="series" x="665" y="156" text-anchor="end">gws</text>
    <rect x="677" y="143" width="100.0" height="17" rx="4" fill="#ef8354"/>
    <text class="value" x="785.0" y="156">3.4 GB/s · 1 alloc</text>
    <text class="series" x="665" y="181" text-anchor="end">gws-stream</text>
    <rect x="677" y="168" width="96.6" height="17" rx="4" fill="#f2c14e"/>
    <text class="value" x="781.6" y="181">3.3 GB/s · 6 allocs</text>
    <text class="series" x="665" y="206" text-anchor="end">coder</text>
    <rect x="677" y="193" width="72.9" height="17" rx="4" fill="#b388eb"/>
    <text class="value" x="757.9" y="206">2.5 GB/s · 25 allocs</text>
    <text class="series" x="665" y="231" text-anchor="end">coder-stream</text>
    <rect x="677" y="218" width="94.6" height="17" rx="4" fill="#e76f9a"/>
    <text class="value" x="779.6" y="231">3.3 GB/s · 20 allocs</text>
    <text class="contract" x="985" y="53">2048 connections</text>
    <text class="series" x="1135" y="81" text-anchor="end">ews</text>
    <rect x="1147" y="68" width="85.9" height="17" rx="4" fill="#50c878"/>
    <text class="value" x="1240.9" y="81">2.0 GB/s · 0 allocs</text>
    <text class="series" x="1135" y="106" text-anchor="end">ews-shared</text>
    <rect x="1147" y="93" width="100.0" height="17" rx="4" fill="#5aa9e6"/>
    <text class="value" x="1255.0" y="106">2.3 GB/s · 0 allocs</text>
    <text class="series" x="1135" y="131" text-anchor="end">ews-stream</text>
    <rect x="1147" y="118" width="92.0" height="17" rx="4" fill="#a3e4b0"/>
    <text class="value" x="1247.0" y="131">2.2 GB/s · 0 allocs</text>
    <text class="series" x="1135" y="156" text-anchor="end">gws</text>
    <rect x="1147" y="143" width="89.9" height="17" rx="4" fill="#ef8354"/>
    <text class="value" x="1244.9" y="156">2.1 GB/s · 1 alloc</text>
    <text class="series" x="1135" y="181" text-anchor="end">gws-stream</text>
    <rect x="1147" y="168" width="89.9" height="17" rx="4" fill="#f2c14e"/>
    <text class="value" x="1244.9" y="181">2.1 GB/s · 6 allocs</text>
    <text class="series" x="1135" y="206" text-anchor="end">coder</text>
    <rect x="1147" y="193" width="61.7" height="17" rx="4" fill="#b388eb"/>
    <text class="value" x="1216.7" y="206">1.4 GB/s · 25 allocs</text>
    <text class="series" x="1135" y="231" text-anchor="end">coder-stream</text>
    <rect x="1147" y="218" width="84.6" height="17" rx="4" fill="#e76f9a"/>
    <text class="value" x="1239.6" y="231">2.0 GB/s · 20 allocs</text>
  </g>
  <g transform="translate(0,967)">
    <rect class="panel" x="25" y="0" width="1450" height="258" rx="10"/>
    <text class="group" x="45" y="27">256 KiB messages</text>
    <text class="contract" x="45" y="53">1 connection</text>
    <text class="series" x="195" y="81" text-anchor="end">ews</text>
    <rect x="207" y="68" width="100.0" height="17" rx="4" fill="#50c878"/>
    <text class="value" x="315.0" y="81">1.5 GB/s · 0 allocs</text>
    <text class="series" x="195" y="106" text-anchor="end">ews-shared</text>
    <rect x="207" y="93" width="98.4" height="17" rx="4" fill="#5aa9e6"/>
    <text class="value" x="313.4" y="106">1.4 GB/s · 0 allocs</text>
    <text class="series" x="195" y="131" text-anchor="end">ews-stream</text>
    <rect x="207" y="118" width="85.2" height="17" rx="4" fill="#a3e4b0"/>
    <text class="value" x="300.2" y="131">1.2 GB/s · 0 allocs</text>
    <text class="series" x="195" y="156" text-anchor="end">gws</text>
    <rect x="207" y="143" width="23.7" height="17" rx="4" fill="#ef8354"/>
    <text class="value" x="238.7" y="156">344 MB/s · 18 allocs</text>
    <text class="series" x="195" y="181" text-anchor="end">gws-stream</text>
    <rect x="207" y="168" width="31.3" height="17" rx="4" fill="#f2c14e"/>
    <text class="value" x="246.3" y="181">455 MB/s · 22 allocs</text>
    <text class="series" x="195" y="206" text-anchor="end">coder</text>
    <rect x="207" y="193" width="14.9" height="17" rx="4" fill="#b388eb"/>
    <text class="value" x="229.9" y="206">217 MB/s · 42 allocs</text>
    <text class="series" x="195" y="231" text-anchor="end">coder-stream</text>
    <rect x="207" y="218" width="88.2" height="17" rx="4" fill="#e76f9a"/>
    <text class="value" x="303.2" y="231">1.3 GB/s · 56 allocs</text>
    <text class="contract" x="515" y="53">128 connections</text>
    <text class="series" x="665" y="81" text-anchor="end">ews</text>
    <rect x="677" y="68" width="88.5" height="17" rx="4" fill="#50c878"/>
    <text class="value" x="773.5" y="81">9.5 GB/s · 0 allocs</text>
    <text class="series" x="665" y="106" text-anchor="end">ews-shared</text>
    <rect x="677" y="93" width="100.0" height="17" rx="4" fill="#5aa9e6"/>
    <text class="value" x="785.0" y="106">10.7 GB/s · 0 allocs</text>
    <text class="series" x="665" y="131" text-anchor="end">ews-stream</text>
    <rect x="677" y="118" width="83.7" height="17" rx="4" fill="#a3e4b0"/>
    <text class="value" x="768.7" y="131">9.0 GB/s · 0 allocs</text>
    <text class="series" x="665" y="156" text-anchor="end">gws</text>
    <rect x="677" y="143" width="33.1" height="17" rx="4" fill="#ef8354"/>
    <text class="value" x="718.1" y="156">3.5 GB/s · 17 allocs</text>
    <text class="series" x="665" y="181" text-anchor="end">gws-stream</text>
    <rect x="677" y="168" width="33.7" height="17" rx="4" fill="#f2c14e"/>
    <text class="value" x="718.7" y="181">3.6 GB/s · 21 allocs</text>
    <text class="series" x="665" y="206" text-anchor="end">coder</text>
    <rect x="677" y="193" width="47.1" height="17" rx="4" fill="#b388eb"/>
    <text class="value" x="732.1" y="206">5.0 GB/s · 32 allocs</text>
    <text class="series" x="665" y="231" text-anchor="end">coder-stream</text>
    <rect x="677" y="218" width="80.0" height="17" rx="4" fill="#e76f9a"/>
    <text class="value" x="765.0" y="231">8.6 GB/s · 56 allocs</text>
    <text class="contract" x="985" y="53">2048 connections</text>
    <text class="series" x="1135" y="81" text-anchor="end">ews</text>
    <rect x="1147" y="68" width="91.5" height="17" rx="4" fill="#50c878"/>
    <text class="value" x="1246.5" y="81">8.4 GB/s · 0 allocs</text>
    <text class="series" x="1135" y="106" text-anchor="end">ews-shared</text>
    <rect x="1147" y="93" width="100.0" height="17" rx="4" fill="#5aa9e6"/>
    <text class="value" x="1255.0" y="106">9.2 GB/s · 0 allocs</text>
    <text class="series" x="1135" y="131" text-anchor="end">ews-stream</text>
    <rect x="1147" y="118" width="94.5" height="17" rx="4" fill="#a3e4b0"/>
    <text class="value" x="1249.5" y="131">8.7 GB/s · 0 allocs</text>
    <text class="series" x="1135" y="156" text-anchor="end">gws</text>
    <rect x="1147" y="143" width="37.3" height="17" rx="4" fill="#ef8354"/>
    <text class="value" x="1192.3" y="156">3.4 GB/s · 19 allocs</text>
    <text class="series" x="1135" y="181" text-anchor="end">gws-stream</text>
    <rect x="1147" y="168" width="28.6" height="17" rx="4" fill="#f2c14e"/>
    <text class="value" x="1183.6" y="181">2.6 GB/s · 26 allocs</text>
    <text class="series" x="1135" y="206" text-anchor="end">coder</text>
    <rect x="1147" y="193" width="27.9" height="17" rx="4" fill="#b388eb"/>
    <text class="value" x="1182.9" y="206">2.6 GB/s · 32 allocs</text>
    <text class="series" x="1135" y="231" text-anchor="end">coder-stream</text>
    <rect x="1147" y="218" width="89.9" height="17" rx="4" fill="#e76f9a"/>
    <text class="value" x="1244.9" y="231">8.3 GB/s · 56 allocs</text>
  </g>
</svg>
