<svg xmlns="http://www.w3.org/2000/svg" width="1500" height="702" viewBox="0 0 1500 702" role="img" aria-labelledby="title desc">
  <title id="title">Broadcast, one message to every connection, uncompressed</title>
  <desc id="desc">go1.27.0-X:simd · GOEXPERIMENT=simd · 13th Gen Intel i9-13900H · 1s benchtime Higher is better.</desc>
  <style>text{font-family:ui-monospace,SFMono-Regular,Menlo,Consolas,monospace;fill:#d8dee9}.title{font-family:ui-sans-serif,system-ui,sans-serif;font-size:28px;font-weight:700}.subtitle{font-family:ui-sans-serif,system-ui,sans-serif;font-size:15px;fill:#aab4c3}.group{font-family:ui-sans-serif,system-ui,sans-serif;font-size:18px;font-weight:650}.contract{font-family:ui-sans-serif,system-ui,sans-serif;font-size:14px;font-weight:650;fill:#9eabbc}.series{font-size:13px;fill:#c4ccd8}.value{font-size:13px;font-weight:650}.panel{fill:#151c27}</style>
  <rect width="1500" height="702" rx="14" fill="#10151d"/>
  <text class="title" x="40" y="48">Broadcast, one message to every connection, uncompressed</text>
  <text class="subtitle" x="40" y="76">go1.27.0-X:simd · GOEXPERIMENT=simd · 13th Gen Intel i9-13900H · 1s benchtime · higher is better</text>
  <rect x="40" y="94" width="14" height="14" rx="3" fill="#50c878"/><text class="series" x="62" y="106">ews</text>
  <rect x="129" y="94" width="14" height="14" rx="3" fill="#5aa9e6"/><text class="series" x="151" y="106">ews-sync</text>
  <rect x="263" y="94" width="14" height="14" rx="3" fill="#ef8354"/><text class="series" x="285" y="106">gws</text>
  <text class="subtitle" x="1460" y="106" text-anchor="end">Each column uses its own linear scale; labels show throughput and allocations per message.</text>
  <g transform="translate(0,145)">
    <rect class="panel" x="25" y="0" width="1450" height="158" rx="10"/>
    <text class="group" x="45" y="27">256 B messages</text>
    <text class="contract" x="45" y="53">128 connections</text>
    <text class="series" x="195" y="81" text-anchor="end">ews</text>
    <rect x="207" y="68" width="100.0" height="17" rx="4" fill="#50c878"/>
    <text class="value" x="315.0" y="81">964k msgs/s · 0 allocs</text>
    <text class="series" x="195" y="106" text-anchor="end">ews-sync</text>
    <rect x="207" y="93" width="16.7" height="17" rx="4" fill="#5aa9e6"/>
    <text class="value" x="231.7" y="106">161k msgs/s · 0 allocs</text>
    <text class="series" x="195" y="131" text-anchor="end">gws</text>
    <rect x="207" y="118" width="93.4" height="17" rx="4" fill="#ef8354"/>
    <text class="value" x="308.4" y="131">900k msgs/s · 259 allocs</text>
    <text class="contract" x="515" y="53">512 connections</text>
    <text class="series" x="665" y="81" text-anchor="end">ews</text>
    <rect x="677" y="68" width="100.0" height="17" rx="4" fill="#50c878"/>
    <text class="value" x="785.0" y="81">1.28M msgs/s · 0 allocs</text>
    <text class="series" x="665" y="106" text-anchor="end">ews-sync</text>
    <rect x="677" y="93" width="19.5" height="17" rx="4" fill="#5aa9e6"/>
    <text class="value" x="704.5" y="106">250k msgs/s · 0 allocs</text>
    <text class="series" x="665" y="131" text-anchor="end">gws</text>
    <rect x="677" y="118" width="97.8" height="17" rx="4" fill="#ef8354"/>
    <text class="value" x="782.8" y="131">1.25M msgs/s · 1027 allocs</text>
    <text class="contract" x="985" y="53">2048 connections</text>
    <text class="series" x="1135" y="81" text-anchor="end">ews</text>
    <rect x="1147" y="68" width="99.5" height="17" rx="4" fill="#50c878"/>
    <text class="value" x="1254.5" y="81">1.26M msgs/s · 1 alloc</text>
    <text class="series" x="1135" y="106" text-anchor="end">ews-sync</text>
    <rect x="1147" y="93" width="21.6" height="17" rx="4" fill="#5aa9e6"/>
    <text class="value" x="1176.6" y="106">273k msgs/s · 0 allocs</text>
    <text class="series" x="1135" y="131" text-anchor="end">gws</text>
    <rect x="1147" y="118" width="100.0" height="17" rx="4" fill="#ef8354"/>
    <text class="value" x="1255.0" y="131">1.26M msgs/s · 4100 allocs</text>
  </g>
  <g transform="translate(0,319)">
    <rect class="panel" x="25" y="0" width="1450" height="158" rx="10"/>
    <text class="group" x="45" y="27">4 KiB messages</text>
    <text class="contract" x="45" y="53">128 connections</text>
    <text class="series" x="195" y="81" text-anchor="end">ews</text>
    <rect x="207" y="68" width="99.5" height="17" rx="4" fill="#50c878"/>
    <text class="value" x="314.5" y="81">838k msgs/s · 0 allocs</text>
    <text class="series" x="195" y="106" text-anchor="end">ews-sync</text>
    <rect x="207" y="93" width="20.8" height="17" rx="4" fill="#5aa9e6"/>
    <text class="value" x="235.8" y="106">175k msgs/s · 0 allocs</text>
    <text class="series" x="195" y="131" text-anchor="end">gws</text>
    <rect x="207" y="118" width="100.0" height="17" rx="4" fill="#ef8354"/>
    <text class="value" x="315.0" y="131">843k msgs/s · 259 allocs</text>
    <text class="contract" x="515" y="53">512 connections</text>
    <text class="series" x="665" y="81" text-anchor="end">ews</text>
    <rect x="677" y="68" width="100.0" height="17" rx="4" fill="#50c878"/>
    <text class="value" x="785.0" y="81">1.16M msgs/s · 0 allocs</text>
    <text class="series" x="665" y="106" text-anchor="end">ews-sync</text>
    <rect x="677" y="93" width="18.0" height="17" rx="4" fill="#5aa9e6"/>
    <text class="value" x="703.0" y="106">208k msgs/s · 0 allocs</text>
    <text class="series" x="665" y="131" text-anchor="end">gws</text>
    <rect x="677" y="118" width="99.7" height="17" rx="4" fill="#ef8354"/>
    <text class="value" x="784.7" y="131">1.15M msgs/s · 1027 allocs</text>
    <text class="contract" x="985" y="53">2048 connections</text>
    <text class="series" x="1135" y="81" text-anchor="end">ews</text>
    <rect x="1147" y="68" width="100.0" height="17" rx="4" fill="#50c878"/>
    <text class="value" x="1255.0" y="81">1.06M msgs/s · 1 alloc</text>
    <text class="series" x="1135" y="106" text-anchor="end">ews-sync</text>
    <rect x="1147" y="93" width="23.0" height="17" rx="4" fill="#5aa9e6"/>
    <text class="value" x="1178.0" y="106">244k msgs/s · 0 allocs</text>
    <text class="series" x="1135" y="131" text-anchor="end">gws</text>
    <rect x="1147" y="118" width="99.6" height="17" rx="4" fill="#ef8354"/>
    <text class="value" x="1254.6" y="131">1.05M msgs/s · 4099 allocs</text>
  </g>
  <g transform="translate(0,493)">
    <rect class="panel" x="25" y="0" width="1450" height="158" rx="10"/>
    <text class="group" x="45" y="27">64 KiB messages</text>
    <text class="contract" x="45" y="53">128 connections</text>
    <text class="series" x="195" y="81" text-anchor="end">ews</text>
    <rect x="207" y="68" width="100.0" height="17" rx="4" fill="#50c878"/>
    <text class="value" x="315.0" y="81">451k msgs/s · 0 allocs</text>
    <text class="series" x="195" y="106" text-anchor="end">ews-sync</text>
    <rect x="207" y="93" width="21.1" height="17" rx="4" fill="#5aa9e6"/>
    <text class="value" x="236.1" y="106">95k msgs/s · 0 allocs</text>
    <text class="series" x="195" y="131" text-anchor="end">gws</text>
    <rect x="207" y="118" width="100.0" height="17" rx="4" fill="#ef8354"/>
    <text class="value" x="315.0" y="131">451k msgs/s · 259 allocs</text>
    <text class="contract" x="515" y="53">512 connections</text>
    <text class="series" x="665" y="81" text-anchor="end">ews</text>
    <rect x="677" y="68" width="100.0" height="17" rx="4" fill="#50c878"/>
    <text class="value" x="785.0" y="81">494k msgs/s · 0 allocs</text>
    <text class="series" x="665" y="106" text-anchor="end">ews-sync</text>
    <rect x="677" y="93" width="21.8" height="17" rx="4" fill="#5aa9e6"/>
    <text class="value" x="706.8" y="106">107k msgs/s · 0 allocs</text>
    <text class="series" x="665" y="131" text-anchor="end">gws</text>
    <rect x="677" y="118" width="97.3" height="17" rx="4" fill="#ef8354"/>
    <text class="value" x="782.3" y="131">481k msgs/s · 1027 allocs</text>
    <text class="contract" x="985" y="53">2048 connections</text>
    <text class="series" x="1135" y="81" text-anchor="end">ews</text>
    <rect x="1147" y="68" width="100.0" height="17" rx="4" fill="#50c878"/>
    <text class="value" x="1255.0" y="81">269k msgs/s · 2 allocs</text>
    <text class="series" x="1135" y="106" text-anchor="end">ews-sync</text>
    <rect x="1147" y="93" width="36.5" height="17" rx="4" fill="#5aa9e6"/>
    <text class="value" x="1191.5" y="106">98k msgs/s · 0 allocs</text>
    <text class="series" x="1135" y="131" text-anchor="end">gws</text>
    <rect x="1147" y="118" width="99.5" height="17" rx="4" fill="#ef8354"/>
    <text class="value" x="1254.5" y="131">268k msgs/s · 4102 allocs</text>
  </g>
</svg>
