<svg xmlns="http://www.w3.org/2000/svg" width="1500" height="702" viewBox="0 0 1500 702" role="img" aria-labelledby="title desc">
  <title id="title">Broadcast, one message to every connection</title>
  <desc id="desc">go1.27.0-X:simd · GOEXPERIMENT=simd · 13th Gen Intel i9-13900H · 500ms benchtime Higher is better.</desc>
  <style>text{font-family:ui-monospace,SFMono-Regular,Menlo,Consolas,monospace;fill:#d8dee9}.title{font-family:ui-sans-serif,system-ui,sans-serif;font-size:28px;font-weight:700}.subtitle{font-family:ui-sans-serif,system-ui,sans-serif;font-size:15px;fill:#aab4c3}.group{font-family:ui-sans-serif,system-ui,sans-serif;font-size:18px;font-weight:650}.contract{font-family:ui-sans-serif,system-ui,sans-serif;font-size:14px;font-weight:650;fill:#9eabbc}.series{font-size:13px;fill:#c4ccd8}.value{font-size:13px;font-weight:650}.panel{fill:#151c27}</style>
  <rect width="1500" height="702" rx="14" fill="#10151d"/>
  <text class="title" x="40" y="48">Broadcast, one message to every connection</text>
  <text class="subtitle" x="40" y="76">go1.27.0-X:simd · GOEXPERIMENT=simd · 13th Gen Intel i9-13900H · 500ms benchtime · higher is better</text>
  <rect x="40" y="94" width="14" height="14" rx="3" fill="#50c878"/><text class="series" x="62" y="106">ews</text>
  <rect x="129" y="94" width="14" height="14" rx="3" fill="#5aa9e6"/><text class="series" x="151" y="106">ews-sync</text>
  <rect x="263" y="94" width="14" height="14" rx="3" fill="#ef8354"/><text class="series" x="285" y="106">gws</text>
  <text class="subtitle" x="1460" y="106" text-anchor="end">Each column uses its own linear scale; labels show throughput and allocations per message.</text>
  <g transform="translate(0,145)">
    <rect class="panel" x="25" y="0" width="1450" height="158" rx="10"/>
    <text class="group" x="45" y="27">128 connections</text>
    <text class="contract" x="45" y="53">Uncompressed</text>
    <text class="series" x="195" y="81" text-anchor="end">ews</text>
    <rect x="207" y="68" width="335.0" height="17" rx="4" fill="#50c878"/>
    <text class="value" x="550.0" y="81">581k msgs/s · 128 allocs</text>
    <text class="series" x="195" y="106" text-anchor="end">ews-sync</text>
    <rect x="207" y="93" width="87.2" height="17" rx="4" fill="#5aa9e6"/>
    <text class="value" x="302.2" y="106">151k msgs/s · 0 allocs</text>
    <text class="series" x="195" y="131" text-anchor="end">gws</text>
    <rect x="207" y="118" width="332.1" height="17" rx="4" fill="#ef8354"/>
    <text class="value" x="547.1" y="131">576k msgs/s · 259 allocs</text>
    <text class="contract" x="750" y="53">Compressed</text>
    <text class="series" x="900" y="81" text-anchor="end">ews</text>
    <rect x="912" y="68" width="285.4" height="17" rx="4" fill="#50c878"/>
    <text class="value" x="1205.4" y="81">426k msgs/s · 128 allocs</text>
    <text class="series" x="900" y="106" text-anchor="end">ews-sync</text>
    <rect x="912" y="93" width="77.7" height="17" rx="4" fill="#5aa9e6"/>
    <text class="value" x="997.7" y="106">116k msgs/s · 0 allocs</text>
    <text class="series" x="900" y="131" text-anchor="end">gws</text>
    <rect x="912" y="118" width="335.0" height="17" rx="4" fill="#ef8354"/>
    <text class="value" x="1255.0" y="131">500k msgs/s · 259 allocs</text>
  </g>
  <g transform="translate(0,319)">
    <rect class="panel" x="25" y="0" width="1450" height="158" rx="10"/>
    <text class="group" x="45" y="27">512 connections</text>
    <text class="contract" x="45" y="53">Uncompressed</text>
    <text class="series" x="195" y="81" text-anchor="end">ews</text>
    <rect x="207" y="68" width="328.5" height="17" rx="4" fill="#50c878"/>
    <text class="value" x="543.5" y="81">820k msgs/s · 512 allocs</text>
    <text class="series" x="195" y="106" text-anchor="end">ews-sync</text>
    <rect x="207" y="93" width="80.1" height="17" rx="4" fill="#5aa9e6"/>
    <text class="value" x="295.1" y="106">200k msgs/s · 0 allocs</text>
    <text class="series" x="195" y="131" text-anchor="end">gws</text>
    <rect x="207" y="118" width="335.0" height="17" rx="4" fill="#ef8354"/>
    <text class="value" x="550.0" y="131">836k msgs/s · 1027 allocs</text>
    <text class="contract" x="750" y="53">Compressed</text>
    <text class="series" x="900" y="81" text-anchor="end">ews</text>
    <rect x="912" y="68" width="335.0" height="17" rx="4" fill="#50c878"/>
    <text class="value" x="1255.0" y="81">642k msgs/s · 512 allocs</text>
    <text class="series" x="900" y="106" text-anchor="end">ews-sync</text>
    <rect x="912" y="93" width="94.5" height="17" rx="4" fill="#5aa9e6"/>
    <text class="value" x="1014.5" y="106">181k msgs/s · 0 allocs</text>
    <text class="series" x="900" y="131" text-anchor="end">gws</text>
    <rect x="912" y="118" width="230.3" height="17" rx="4" fill="#ef8354"/>
    <text class="value" x="1150.3" y="131">441k msgs/s · 1027 allocs</text>
  </g>
  <g transform="translate(0,493)">
    <rect class="panel" x="25" y="0" width="1450" height="158" rx="10"/>
    <text class="group" x="45" y="27">2048 connections</text>
    <text class="contract" x="45" y="53">Uncompressed</text>
    <text class="series" x="195" y="81" text-anchor="end">ews</text>
    <rect x="207" y="68" width="334.6" height="17" rx="4" fill="#50c878"/>
    <text class="value" x="549.6" y="81">852k msgs/s · 2049 allocs</text>
    <text class="series" x="195" y="106" text-anchor="end">ews-sync</text>
    <rect x="207" y="93" width="89.7" height="17" rx="4" fill="#5aa9e6"/>
    <text class="value" x="304.7" y="106">229k msgs/s · 0 allocs</text>
    <text class="series" x="195" y="131" text-anchor="end">gws</text>
    <rect x="207" y="118" width="335.0" height="17" rx="4" fill="#ef8354"/>
    <text class="value" x="550.0" y="131">853k msgs/s · 4099 allocs</text>
    <text class="contract" x="750" y="53">Compressed</text>
    <text class="series" x="900" y="81" text-anchor="end">ews</text>
    <rect x="912" y="68" width="335.0" height="17" rx="4" fill="#50c878"/>
    <text class="value" x="1255.0" y="81">664k msgs/s · 2049 allocs</text>
    <text class="series" x="900" y="106" text-anchor="end">ews-sync</text>
    <rect x="912" y="93" width="107.0" height="17" rx="4" fill="#5aa9e6"/>
    <text class="value" x="1027.0" y="106">212k msgs/s · 2 allocs</text>
    <text class="series" x="900" y="131" text-anchor="end">gws</text>
    <rect x="912" y="118" width="235.3" height="17" rx="4" fill="#ef8354"/>
    <text class="value" x="1155.3" y="131">466k msgs/s · 4101 allocs</text>
  </g>
</svg>
