<svg xmlns="http://www.w3.org/2000/svg" width="1500" height="876" viewBox="0 0 1500 876" role="img" aria-labelledby="title desc">
  <title id="title">Broadcast, one message to every connection, compressed</title>
  <desc id="desc">go1.27.1-X:nodwarf5 · default build · AMD Ryzen 9 9950X3D 16- · 1s benchtime Higher is better.</desc>
  <style>text{font-family:ui-monospace,SFMono-Regular,Menlo,Consolas,monospace;fill:#d8dee9}.title{font-family:ui-sans-serif,system-ui,sans-serif;font-size:28px;font-weight:700}.subtitle{font-family:ui-sans-serif,system-ui,sans-serif;font-size:15px;fill:#aab4c3}.group{font-family:ui-sans-serif,system-ui,sans-serif;font-size:18px;font-weight:650}.contract{font-family:ui-sans-serif,system-ui,sans-serif;font-size:14px;font-weight:650;fill:#9eabbc}.series{font-size:13px;fill:#c4ccd8}.value{font-size:13px;font-weight:650}.panel{fill:#151c27}</style>
  <rect width="1500" height="876" rx="14" fill="#10151d"/>
  <text class="title" x="40" y="48">Broadcast, one message to every connection, compressed</text>
  <text class="subtitle" x="40" y="76">go1.27.1-X:nodwarf5 · default build · AMD Ryzen 9 9950X3D 16- · 1s benchtime · higher is better</text>
  <rect x="40" y="94" width="14" height="14" rx="3" fill="#50c878"/><text class="series" x="62" y="106">ews</text>
  <rect x="129" y="94" width="14" height="14" rx="3" fill="#5aa9e6"/><text class="series" x="151" y="106">ews-sync</text>
  <rect x="263" y="94" width="14" height="14" rx="3" fill="#ef8354"/><text class="series" x="285" y="106">gws</text>
  <text class="subtitle" x="1460" y="106" text-anchor="end">Each column uses its own linear scale; labels show throughput and allocations per message.</text>
  <g transform="translate(0,145)">
    <rect class="panel" x="25" y="0" width="1450" height="158" rx="10"/>
    <text class="group" x="45" y="27">256 B messages</text>
    <text class="contract" x="45" y="53">128 connections</text>
    <text class="series" x="195" y="81" text-anchor="end">ews</text>
    <rect x="207" y="68" width="100.0" height="17" rx="4" fill="#50c878"/>
    <text class="value" x="315.0" y="81">1.26M msgs/s · 4 allocs</text>
    <text class="series" x="195" y="106" text-anchor="end">ews-sync</text>
    <rect x="207" y="93" width="55.7" height="17" rx="4" fill="#5aa9e6"/>
    <text class="value" x="270.7" y="106">703k msgs/s · 4 allocs</text>
    <text class="series" x="195" y="131" text-anchor="end">gws</text>
    <rect x="207" y="118" width="93.2" height="17" rx="4" fill="#ef8354"/>
    <text class="value" x="308.2" y="131">1.18M msgs/s · 259 allocs</text>
    <text class="contract" x="515" y="53">512 connections</text>
    <text class="series" x="665" y="81" text-anchor="end">ews</text>
    <rect x="677" y="68" width="100.0" height="17" rx="4" fill="#50c878"/>
    <text class="value" x="785.0" y="81">1.55M msgs/s · 4 allocs</text>
    <text class="series" x="665" y="106" text-anchor="end">ews-sync</text>
    <rect x="677" y="93" width="48.5" height="17" rx="4" fill="#5aa9e6"/>
    <text class="value" x="733.5" y="106">751k msgs/s · 4 allocs</text>
    <text class="series" x="665" y="131" text-anchor="end">gws</text>
    <rect x="677" y="118" width="93.5" height="17" rx="4" fill="#ef8354"/>
    <text class="value" x="778.5" y="131">1.45M msgs/s · 1027 allocs</text>
    <text class="contract" x="985" y="53">2048 connections</text>
    <text class="series" x="1135" y="81" text-anchor="end">ews</text>
    <rect x="1147" y="68" width="100.0" height="17" rx="4" fill="#50c878"/>
    <text class="value" x="1255.0" y="81">1.47M msgs/s · 4 allocs</text>
    <text class="series" x="1135" y="106" text-anchor="end">ews-sync</text>
    <rect x="1147" y="93" width="47.7" height="17" rx="4" fill="#5aa9e6"/>
    <text class="value" x="1202.7" y="106">701k msgs/s · 4 allocs</text>
    <text class="series" x="1135" y="131" text-anchor="end">gws</text>
    <rect x="1147" y="118" width="58.0" height="17" rx="4" fill="#ef8354"/>
    <text class="value" x="1213.0" y="131">851k msgs/s · 4099 allocs</text>
  </g>
  <g transform="translate(0,319)">
    <rect class="panel" x="25" y="0" width="1450" height="158" rx="10"/>
    <text class="group" x="45" y="27">4 KiB messages</text>
    <text class="contract" x="45" y="53">128 connections</text>
    <text class="series" x="195" y="81" text-anchor="end">ews</text>
    <rect x="207" y="68" width="100.0" height="17" rx="4" fill="#50c878"/>
    <text class="value" x="315.0" y="81">1.04M msgs/s · 4 allocs</text>
    <text class="series" x="195" y="106" text-anchor="end">ews-sync</text>
    <rect x="207" y="93" width="67.0" height="17" rx="4" fill="#5aa9e6"/>
    <text class="value" x="282.0" y="106">695k msgs/s · 4 allocs</text>
    <text class="series" x="195" y="131" text-anchor="end">gws</text>
    <rect x="207" y="118" width="94.9" height="17" rx="4" fill="#ef8354"/>
    <text class="value" x="309.9" y="131">985k msgs/s · 259 allocs</text>
    <text class="contract" x="515" y="53">512 connections</text>
    <text class="series" x="665" y="81" text-anchor="end">ews</text>
    <rect x="677" y="68" width="100.0" height="17" rx="4" fill="#50c878"/>
    <text class="value" x="785.0" y="81">1.23M msgs/s · 4 allocs</text>
    <text class="series" x="665" y="106" text-anchor="end">ews-sync</text>
    <rect x="677" y="93" width="61.3" height="17" rx="4" fill="#5aa9e6"/>
    <text class="value" x="746.3" y="106">756k msgs/s · 4 allocs</text>
    <text class="series" x="665" y="131" text-anchor="end">gws</text>
    <rect x="677" y="118" width="93.8" height="17" rx="4" fill="#ef8354"/>
    <text class="value" x="778.8" y="131">1.16M msgs/s · 1027 allocs</text>
    <text class="contract" x="985" y="53">2048 connections</text>
    <text class="series" x="1135" y="81" text-anchor="end">ews</text>
    <rect x="1147" y="68" width="100.0" height="17" rx="4" fill="#50c878"/>
    <text class="value" x="1255.0" y="81">1.09M msgs/s · 4 allocs</text>
    <text class="series" x="1135" y="106" text-anchor="end">ews-sync</text>
    <rect x="1147" y="93" width="63.3" height="17" rx="4" fill="#5aa9e6"/>
    <text class="value" x="1218.3" y="106">689k msgs/s · 4 allocs</text>
    <text class="series" x="1135" y="131" text-anchor="end">gws</text>
    <rect x="1147" y="118" width="64.4" height="17" rx="4" fill="#ef8354"/>
    <text class="value" x="1219.4" y="131">701k msgs/s · 4099 allocs</text>
  </g>
  <g transform="translate(0,493)">
    <rect class="panel" x="25" y="0" width="1450" height="158" rx="10"/>
    <text class="group" x="45" y="27">64 KiB messages</text>
    <text class="contract" x="45" y="53">128 connections</text>
    <text class="series" x="195" y="81" text-anchor="end">ews</text>
    <rect x="207" y="68" width="96.9" height="17" rx="4" fill="#50c878"/>
    <text class="value" x="311.9" y="81">599k msgs/s · 4 allocs</text>
    <text class="series" x="195" y="106" text-anchor="end">ews-sync</text>
    <rect x="207" y="93" width="100.0" height="17" rx="4" fill="#5aa9e6"/>
    <text class="value" x="315.0" y="106">619k msgs/s · 4 allocs</text>
    <text class="series" x="195" y="131" text-anchor="end">gws</text>
    <rect x="207" y="118" width="95.3" height="17" rx="4" fill="#ef8354"/>
    <text class="value" x="310.3" y="131">589k msgs/s · 259 allocs</text>
    <text class="contract" x="515" y="53">512 connections</text>
    <text class="series" x="665" y="81" text-anchor="end">ews</text>
    <rect x="677" y="68" width="99.7" height="17" rx="4" fill="#50c878"/>
    <text class="value" x="784.7" y="81">703k msgs/s · 4 allocs</text>
    <text class="series" x="665" y="106" text-anchor="end">ews-sync</text>
    <rect x="677" y="93" width="100.0" height="17" rx="4" fill="#5aa9e6"/>
    <text class="value" x="785.0" y="106">705k msgs/s · 4 allocs</text>
    <text class="series" x="665" y="131" text-anchor="end">gws</text>
    <rect x="677" y="118" width="96.7" height="17" rx="4" fill="#ef8354"/>
    <text class="value" x="781.7" y="131">682k msgs/s · 1027 allocs</text>
    <text class="contract" x="985" y="53">2048 connections</text>
    <text class="series" x="1135" y="81" text-anchor="end">ews</text>
    <rect x="1147" y="68" width="100.0" height="17" rx="4" fill="#50c878"/>
    <text class="value" x="1255.0" y="81">684k msgs/s · 4 allocs</text>
    <text class="series" x="1135" y="106" text-anchor="end">ews-sync</text>
    <rect x="1147" y="93" width="95.9" height="17" rx="4" fill="#5aa9e6"/>
    <text class="value" x="1250.9" y="106">656k msgs/s · 4 allocs</text>
    <text class="series" x="1135" y="131" text-anchor="end">gws</text>
    <rect x="1147" y="118" width="68.0" height="17" rx="4" fill="#ef8354"/>
    <text class="value" x="1223.0" y="131">465k msgs/s · 4099 allocs</text>
  </g>
  <g transform="translate(0,667)">
    <rect class="panel" x="25" y="0" width="1450" height="158" rx="10"/>
    <text class="group" x="45" y="27">256 KiB messages</text>
    <text class="contract" x="45" y="53">128 connections</text>
    <text class="series" x="195" y="81" text-anchor="end">ews</text>
    <rect x="207" y="68" width="99.5" height="17" rx="4" fill="#50c878"/>
    <text class="value" x="314.5" y="81">255k msgs/s · 6 allocs</text>
    <text class="series" x="195" y="106" text-anchor="end">ews-sync</text>
    <rect x="207" y="93" width="96.1" height="17" rx="4" fill="#5aa9e6"/>
    <text class="value" x="311.1" y="106">246k msgs/s · 6 allocs</text>
    <text class="series" x="195" y="131" text-anchor="end">gws</text>
    <rect x="207" y="118" width="100.0" height="17" rx="4" fill="#ef8354"/>
    <text class="value" x="315.0" y="131">256k msgs/s · 261 allocs</text>
    <text class="contract" x="515" y="53">512 connections</text>
    <text class="series" x="665" y="81" text-anchor="end">ews</text>
    <rect x="677" y="68" width="100.0" height="17" rx="4" fill="#50c878"/>
    <text class="value" x="785.0" y="81">289k msgs/s · 4 allocs</text>
    <text class="series" x="665" y="106" text-anchor="end">ews-sync</text>
    <rect x="677" y="93" width="97.8" height="17" rx="4" fill="#5aa9e6"/>
    <text class="value" x="782.8" y="106">283k msgs/s · 5 allocs</text>
    <text class="series" x="665" y="131" text-anchor="end">gws</text>
    <rect x="677" y="118" width="98.6" height="17" rx="4" fill="#ef8354"/>
    <text class="value" x="783.6" y="131">285k msgs/s · 1029 allocs</text>
    <text class="contract" x="985" y="53">2048 connections</text>
    <text class="series" x="1135" y="81" text-anchor="end">ews</text>
    <rect x="1147" y="68" width="98.6" height="17" rx="4" fill="#50c878"/>
    <text class="value" x="1253.6" y="81">284k msgs/s · 4 allocs</text>
    <text class="series" x="1135" y="106" text-anchor="end">ews-sync</text>
    <rect x="1147" y="93" width="100.0" height="17" rx="4" fill="#5aa9e6"/>
    <text class="value" x="1255.0" y="106">288k msgs/s · 4 allocs</text>
    <text class="series" x="1135" y="131" text-anchor="end">gws</text>
    <rect x="1147" y="118" width="83.3" height="17" rx="4" fill="#ef8354"/>
    <text class="value" x="1238.3" y="131">240k msgs/s · 4101 allocs</text>
  </g>
</svg>
