<svg xmlns="http://www.w3.org/2000/svg" width="1500" height="996" viewBox="0 0 1500 996" role="img" aria-labelledby="title desc">
  <title id="title">Broadcast, one message to every connection, uncompressed</title>
  <desc id="desc">go1.27.1-X:nodwarf5 · default build · AMD Ryzen 9 9950X3D · GOMAXPROCS=8 · 1s benchtime Higher is better.</desc>
  <style>text{font-family:ui-monospace,SFMono-Regular,Menlo,Consolas,monospace;fill:#d8dee9}.title{font-family:ui-sans-serif,system-ui,sans-serif;font-size:28px;font-weight:700}.subtitle{font-family:ui-sans-serif,system-ui,sans-serif;font-size:15px;fill:#aab4c3}.group{font-family:ui-sans-serif,system-ui,sans-serif;font-size:18px;font-weight:650}.contract{font-family:ui-sans-serif,system-ui,sans-serif;font-size:14px;font-weight:650;fill:#9eabbc}.series{font-size:13px;fill:#c4ccd8}.value{font-size:13px;font-weight:650}.panel{fill:#151c27}</style>
  <rect width="1500" height="996" rx="14" fill="#10151d"/>
  <text class="title" x="40" y="48">Broadcast, one message to every connection, uncompressed</text>
  <text class="subtitle" x="40" y="76">go1.27.1-X:nodwarf5 · default build · AMD Ryzen 9 9950X3D · GOMAXPROCS=8 · 1s benchtime · higher is better</text>
  <rect x="40" y="94" width="14" height="14" rx="3" fill="#50c878"/><text class="series" x="62" y="106">ews</text>
  <rect x="129" y="94" width="14" height="14" rx="3" fill="#5aa9e6"/><text class="series" x="151" y="106">ews-sync</text>
  <rect x="263" y="94" width="14" height="14" rx="3" fill="#ef8354"/><text class="series" x="285" y="106">gws</text>
  <rect x="352" y="94" width="14" height="14" rx="3" fill="#c9a86a"/><text class="series" x="374" y="106">gorilla</text>
  <text class="subtitle" x="40" y="134">Each column uses its own linear scale; labels show throughput and allocations per message.</text>
  <g transform="translate(0,165)">
    <rect class="panel" x="25" y="0" width="1450" height="183" rx="10"/>
    <text class="group" x="45" y="27">256 B messages</text>
    <text class="contract" x="45" y="53">128 connections</text>
    <text class="series" x="195" y="81" text-anchor="end">ews</text>
    <rect x="207" y="68" width="100.0" height="17" rx="4" fill="#50c878"/>
    <text class="value" x="315.0" y="81">1.63M msgs/s · 2 allocs</text>
    <text class="series" x="195" y="106" text-anchor="end">ews-sync</text>
    <rect x="207" y="93" width="43.5" height="17" rx="4" fill="#5aa9e6"/>
    <text class="value" x="258.5" y="106">707k msgs/s · 2 allocs</text>
    <text class="series" x="195" y="131" text-anchor="end">gws</text>
    <rect x="207" y="118" width="98.3" height="17" rx="4" fill="#ef8354"/>
    <text class="value" x="313.3" y="131">1.60M msgs/s · 259 allocs</text>
    <text class="series" x="195" y="156" text-anchor="end">gorilla</text>
    <rect x="207" y="143" width="40.9" height="17" rx="4" fill="#c9a86a"/>
    <text class="value" x="255.9" y="156">665k msgs/s · 15 allocs</text>
    <text class="contract" x="515" y="53">2048 connections</text>
    <text class="series" x="665" y="81" text-anchor="end">ews</text>
    <rect x="677" y="68" width="100.0" height="17" rx="4" fill="#50c878"/>
    <text class="value" x="785.0" y="81">2.16M msgs/s · 2 allocs</text>
    <text class="series" x="665" y="106" text-anchor="end">ews-sync</text>
    <rect x="677" y="93" width="35.5" height="17" rx="4" fill="#5aa9e6"/>
    <text class="value" x="720.5" y="106">768k msgs/s · 2 allocs</text>
    <text class="series" x="665" y="131" text-anchor="end">gws</text>
    <rect x="677" y="118" width="99.8" height="17" rx="4" fill="#ef8354"/>
    <text class="value" x="784.8" y="131">2.16M msgs/s · 4099 allocs</text>
    <text class="series" x="665" y="156" text-anchor="end">gorilla</text>
    <rect x="677" y="143" width="33.3" height="17" rx="4" fill="#c9a86a"/>
    <text class="value" x="718.3" y="156">720k msgs/s · 15 allocs</text>
    <text class="contract" x="985" y="53">8192 connections</text>
    <text class="series" x="1135" y="81" text-anchor="end">ews</text>
    <rect x="1147" y="68" width="98.3" height="17" rx="4" fill="#50c878"/>
    <text class="value" x="1253.3" y="81">1.67M msgs/s · 5 allocs</text>
    <text class="series" x="1135" y="106" text-anchor="end">ews-sync</text>
    <rect x="1147" y="93" width="39.4" height="17" rx="4" fill="#5aa9e6"/>
    <text class="value" x="1194.4" y="106">668k msgs/s · 2 allocs</text>
    <text class="series" x="1135" y="131" text-anchor="end">gws</text>
    <rect x="1147" y="118" width="100.0" height="17" rx="4" fill="#ef8354"/>
    <text class="value" x="1255.0" y="131">1.70M msgs/s · 16391 allocs</text>
    <text class="series" x="1135" y="156" text-anchor="end">gorilla</text>
    <rect x="1147" y="143" width="36.5" height="17" rx="4" fill="#c9a86a"/>
    <text class="value" x="1191.5" y="156">620k msgs/s · 15 allocs</text>
  </g>
  <g transform="translate(0,364)">
    <rect class="panel" x="25" y="0" width="1450" height="183" rx="10"/>
    <text class="group" x="45" y="27">4 KiB messages</text>
    <text class="contract" x="45" y="53">128 connections</text>
    <text class="series" x="195" y="81" text-anchor="end">ews</text>
    <rect x="207" y="68" width="100.0" height="17" rx="4" fill="#50c878"/>
    <text class="value" x="315.0" y="81">1.46M msgs/s · 2 allocs</text>
    <text class="series" x="195" y="106" text-anchor="end">ews-sync</text>
    <rect x="207" y="93" width="44.3" height="17" rx="4" fill="#5aa9e6"/>
    <text class="value" x="259.3" y="106">645k msgs/s · 2 allocs</text>
    <text class="series" x="195" y="131" text-anchor="end">gws</text>
    <rect x="207" y="118" width="99.0" height="17" rx="4" fill="#ef8354"/>
    <text class="value" x="314.0" y="131">1.44M msgs/s · 259 allocs</text>
    <text class="series" x="195" y="156" text-anchor="end">gorilla</text>
    <rect x="207" y="143" width="41.6" height="17" rx="4" fill="#c9a86a"/>
    <text class="value" x="256.6" y="156">605k msgs/s · 15 allocs</text>
    <text class="contract" x="515" y="53">2048 connections</text>
    <text class="series" x="665" y="81" text-anchor="end">ews</text>
    <rect x="677" y="68" width="100.0" height="17" rx="4" fill="#50c878"/>
    <text class="value" x="785.0" y="81">1.90M msgs/s · 2 allocs</text>
    <text class="series" x="665" y="106" text-anchor="end">ews-sync</text>
    <rect x="677" y="93" width="36.7" height="17" rx="4" fill="#5aa9e6"/>
    <text class="value" x="721.7" y="106">699k msgs/s · 2 allocs</text>
    <text class="series" x="665" y="131" text-anchor="end">gws</text>
    <rect x="677" y="118" width="99.3" height="17" rx="4" fill="#ef8354"/>
    <text class="value" x="784.3" y="131">1.89M msgs/s · 4099 allocs</text>
    <text class="series" x="665" y="156" text-anchor="end">gorilla</text>
    <rect x="677" y="143" width="34.4" height="17" rx="4" fill="#c9a86a"/>
    <text class="value" x="719.4" y="156">655k msgs/s · 15 allocs</text>
    <text class="contract" x="985" y="53">8192 connections</text>
    <text class="series" x="1135" y="81" text-anchor="end">ews</text>
    <rect x="1147" y="68" width="95.7" height="17" rx="4" fill="#50c878"/>
    <text class="value" x="1250.7" y="81">1.12M msgs/s · 2 allocs</text>
    <text class="series" x="1135" y="106" text-anchor="end">ews-sync</text>
    <rect x="1147" y="93" width="46.7" height="17" rx="4" fill="#5aa9e6"/>
    <text class="value" x="1201.7" y="106">546k msgs/s · 2 allocs</text>
    <text class="series" x="1135" y="131" text-anchor="end">gws</text>
    <rect x="1147" y="118" width="100.0" height="17" rx="4" fill="#ef8354"/>
    <text class="value" x="1255.0" y="131">1.17M msgs/s · 16387 allocs</text>
    <text class="series" x="1135" y="156" text-anchor="end">gorilla</text>
    <rect x="1147" y="143" width="43.2" height="17" rx="4" fill="#c9a86a"/>
    <text class="value" x="1198.2" y="156">506k msgs/s · 15 allocs</text>
  </g>
  <g transform="translate(0,563)">
    <rect class="panel" x="25" y="0" width="1450" height="183" rx="10"/>
    <text class="group" x="45" y="27">64 KiB messages</text>
    <text class="contract" x="45" y="53">128 connections</text>
    <text class="series" x="195" y="81" text-anchor="end">ews</text>
    <rect x="207" y="68" width="98.1" height="17" rx="4" fill="#50c878"/>
    <text class="value" x="313.1" y="81">744k msgs/s · 2 allocs</text>
    <text class="series" x="195" y="106" text-anchor="end">ews-sync</text>
    <rect x="207" y="93" width="23.2" height="17" rx="4" fill="#5aa9e6"/>
    <text class="value" x="238.2" y="106">176k msgs/s · 2 allocs</text>
    <text class="series" x="195" y="131" text-anchor="end">gws</text>
    <rect x="207" y="118" width="100.0" height="17" rx="4" fill="#ef8354"/>
    <text class="value" x="315.0" y="131">758k msgs/s · 259 allocs</text>
    <text class="series" x="195" y="156" text-anchor="end">gorilla</text>
    <rect x="207" y="143" width="22.6" height="17" rx="4" fill="#c9a86a"/>
    <text class="value" x="237.6" y="156">172k msgs/s · 21 allocs</text>
    <text class="contract" x="515" y="53">2048 connections</text>
    <text class="series" x="665" y="81" text-anchor="end">ews</text>
    <rect x="677" y="68" width="100.0" height="17" rx="4" fill="#50c878"/>
    <text class="value" x="785.0" y="81">418k msgs/s · 2 allocs</text>
    <text class="series" x="665" y="106" text-anchor="end">ews-sync</text>
    <rect x="677" y="93" width="43.5" height="17" rx="4" fill="#5aa9e6"/>
    <text class="value" x="728.5" y="106">182k msgs/s · 2 allocs</text>
    <text class="series" x="665" y="131" text-anchor="end">gws</text>
    <rect x="677" y="118" width="99.3" height="17" rx="4" fill="#ef8354"/>
    <text class="value" x="784.3" y="131">415k msgs/s · 4099 allocs</text>
    <text class="series" x="665" y="156" text-anchor="end">gorilla</text>
    <rect x="677" y="143" width="43.4" height="17" rx="4" fill="#c9a86a"/>
    <text class="value" x="728.4" y="156">181k msgs/s · 21 allocs</text>
    <text class="contract" x="985" y="53">8192 connections</text>
    <text class="series" x="1135" y="81" text-anchor="end">ews</text>
    <rect x="1147" y="68" width="98.9" height="17" rx="4" fill="#50c878"/>
    <text class="value" x="1253.9" y="81">263k msgs/s · 2 allocs</text>
    <text class="series" x="1135" y="106" text-anchor="end">ews-sync</text>
    <rect x="1147" y="93" width="64.6" height="17" rx="4" fill="#5aa9e6"/>
    <text class="value" x="1219.6" y="106">172k msgs/s · 2 allocs</text>
    <text class="series" x="1135" y="131" text-anchor="end">gws</text>
    <rect x="1147" y="118" width="100.0" height="17" rx="4" fill="#ef8354"/>
    <text class="value" x="1255.0" y="131">266k msgs/s · 16387 allocs</text>
    <text class="series" x="1135" y="156" text-anchor="end">gorilla</text>
    <rect x="1147" y="143" width="64.3" height="17" rx="4" fill="#c9a86a"/>
    <text class="value" x="1219.3" y="156">171k msgs/s · 21 allocs</text>
  </g>
  <g transform="translate(0,762)">
    <rect class="panel" x="25" y="0" width="1450" height="183" rx="10"/>
    <text class="group" x="45" y="27">256 KiB messages</text>
    <text class="contract" x="45" y="53">128 connections</text>
    <text class="series" x="195" y="81" text-anchor="end">ews</text>
    <rect x="207" y="68" width="100.0" height="17" rx="4" fill="#50c878"/>
    <text class="value" x="315.0" y="81">319k msgs/s · 2 allocs</text>
    <text class="series" x="195" y="106" text-anchor="end">ews-sync</text>
    <rect x="207" y="93" width="23.4" height="17" rx="4" fill="#5aa9e6"/>
    <text class="value" x="238.4" y="106">75k msgs/s · 2 allocs</text>
    <text class="series" x="195" y="131" text-anchor="end">gws</text>
    <rect x="207" y="118" width="99.7" height="17" rx="4" fill="#ef8354"/>
    <text class="value" x="314.7" y="131">318k msgs/s · 261 allocs</text>
    <text class="series" x="195" y="156" text-anchor="end">gorilla</text>
    <rect x="207" y="143" width="23.3" height="17" rx="4" fill="#c9a86a"/>
    <text class="value" x="238.3" y="156">74k msgs/s · 21 allocs</text>
    <text class="contract" x="515" y="53">2048 connections</text>
    <text class="series" x="665" y="81" text-anchor="end">ews</text>
    <rect x="677" y="68" width="100.0" height="17" rx="4" fill="#50c878"/>
    <text class="value" x="785.0" y="81">77k msgs/s · 2 allocs</text>
    <text class="series" x="665" y="106" text-anchor="end">ews-sync</text>
    <rect x="677" y="93" width="88.7" height="17" rx="4" fill="#5aa9e6"/>
    <text class="value" x="773.7" y="106">68k msgs/s · 2 allocs</text>
    <text class="series" x="665" y="131" text-anchor="end">gws</text>
    <rect x="677" y="118" width="99.8" height="17" rx="4" fill="#ef8354"/>
    <text class="value" x="784.8" y="131">76k msgs/s · 4101 allocs</text>
    <text class="series" x="665" y="156" text-anchor="end">gorilla</text>
    <rect x="677" y="143" width="87.7" height="17" rx="4" fill="#c9a86a"/>
    <text class="value" x="772.7" y="156">67k msgs/s · 21 allocs</text>
    <text class="contract" x="985" y="53">8192 connections</text>
    <text class="series" x="1135" y="81" text-anchor="end">ews</text>
    <rect x="1147" y="68" width="99.6" height="17" rx="4" fill="#50c878"/>
    <text class="value" x="1254.6" y="81">71k msgs/s · 2 allocs</text>
    <text class="series" x="1135" y="106" text-anchor="end">ews-sync</text>
    <rect x="1147" y="93" width="96.1" height="17" rx="4" fill="#5aa9e6"/>
    <text class="value" x="1251.1" y="106">68k msgs/s · 2 allocs</text>
    <text class="series" x="1135" y="131" text-anchor="end">gws</text>
    <rect x="1147" y="118" width="100.0" height="17" rx="4" fill="#ef8354"/>
    <text class="value" x="1255.0" y="131">71k msgs/s · 16389 allocs</text>
    <text class="series" x="1135" y="156" text-anchor="end">gorilla</text>
    <rect x="1147" y="143" width="93.0" height="17" rx="4" fill="#c9a86a"/>
    <text class="value" x="1248.0" y="156">66k msgs/s · 21 allocs</text>
  </g>
</svg>
