<svg xmlns="http://www.w3.org/2000/svg" width="1500" height="876" viewBox="0 0 1500 876" role="img" aria-labelledby="title desc">
  <title id="title">Broadcast, one message to every connection, compressed</title>
  <desc id="desc">go1.27.1-X:simd · GOEXPERIMENT=simd · AMD Ryzen 9 9950X3D 16- · 1s benchtime Higher is better.</desc>
  <style>text{font-family:ui-monospace,SFMono-Regular,Menlo,Consolas,monospace;fill:#d8dee9}.title{font-family:ui-sans-serif,system-ui,sans-serif;font-size:28px;font-weight:700}.subtitle{font-family:ui-sans-serif,system-ui,sans-serif;font-size:15px;fill:#aab4c3}.group{font-family:ui-sans-serif,system-ui,sans-serif;font-size:18px;font-weight:650}.contract{font-family:ui-sans-serif,system-ui,sans-serif;font-size:14px;font-weight:650;fill:#9eabbc}.series{font-size:13px;fill:#c4ccd8}.value{font-size:13px;font-weight:650}.panel{fill:#151c27}</style>
  <rect width="1500" height="876" rx="14" fill="#10151d"/>
  <text class="title" x="40" y="48">Broadcast, one message to every connection, compressed</text>
  <text class="subtitle" x="40" y="76">go1.27.1-X:simd · GOEXPERIMENT=simd · AMD Ryzen 9 9950X3D 16- · 1s benchtime · higher is better</text>
  <rect x="40" y="94" width="14" height="14" rx="3" fill="#50c878"/><text class="series" x="62" y="106">ews</text>
  <rect x="129" y="94" width="14" height="14" rx="3" fill="#5aa9e6"/><text class="series" x="151" y="106">ews-sync</text>
  <rect x="263" y="94" width="14" height="14" rx="3" fill="#ef8354"/><text class="series" x="285" y="106">gws</text>
  <text class="subtitle" x="1460" y="106" text-anchor="end">Each column uses its own linear scale; labels show throughput and allocations per message.</text>
  <g transform="translate(0,145)">
    <rect class="panel" x="25" y="0" width="1450" height="158" rx="10"/>
    <text class="group" x="45" y="27">256 B messages</text>
    <text class="contract" x="45" y="53">128 connections</text>
    <text class="series" x="195" y="81" text-anchor="end">ews</text>
    <rect x="207" y="68" width="100.0" height="17" rx="4" fill="#50c878"/>
    <text class="value" x="315.0" y="81">1.25M msgs/s · 4 allocs</text>
    <text class="series" x="195" y="106" text-anchor="end">ews-sync</text>
    <rect x="207" y="93" width="56.0" height="17" rx="4" fill="#5aa9e6"/>
    <text class="value" x="271.0" y="106">699k msgs/s · 4 allocs</text>
    <text class="series" x="195" y="131" text-anchor="end">gws</text>
    <rect x="207" y="118" width="93.4" height="17" rx="4" fill="#ef8354"/>
    <text class="value" x="308.4" y="131">1.17M msgs/s · 259 allocs</text>
    <text class="contract" x="515" y="53">512 connections</text>
    <text class="series" x="665" y="81" text-anchor="end">ews</text>
    <rect x="677" y="68" width="100.0" height="17" rx="4" fill="#50c878"/>
    <text class="value" x="785.0" y="81">1.56M msgs/s · 4 allocs</text>
    <text class="series" x="665" y="106" text-anchor="end">ews-sync</text>
    <rect x="677" y="93" width="48.6" height="17" rx="4" fill="#5aa9e6"/>
    <text class="value" x="733.6" y="106">757k msgs/s · 4 allocs</text>
    <text class="series" x="665" y="131" text-anchor="end">gws</text>
    <rect x="677" y="118" width="91.6" height="17" rx="4" fill="#ef8354"/>
    <text class="value" x="776.6" y="131">1.43M msgs/s · 1027 allocs</text>
    <text class="contract" x="985" y="53">2048 connections</text>
    <text class="series" x="1135" y="81" text-anchor="end">ews</text>
    <rect x="1147" y="68" width="100.0" height="17" rx="4" fill="#50c878"/>
    <text class="value" x="1255.0" y="81">1.42M msgs/s · 4 allocs</text>
    <text class="series" x="1135" y="106" text-anchor="end">ews-sync</text>
    <rect x="1147" y="93" width="49.5" height="17" rx="4" fill="#5aa9e6"/>
    <text class="value" x="1204.5" y="106">702k msgs/s · 4 allocs</text>
    <text class="series" x="1135" y="131" text-anchor="end">gws</text>
    <rect x="1147" y="118" width="58.0" height="17" rx="4" fill="#ef8354"/>
    <text class="value" x="1213.0" y="131">823k msgs/s · 4099 allocs</text>
  </g>
  <g transform="translate(0,319)">
    <rect class="panel" x="25" y="0" width="1450" height="158" rx="10"/>
    <text class="group" x="45" y="27">4 KiB messages</text>
    <text class="contract" x="45" y="53">128 connections</text>
    <text class="series" x="195" y="81" text-anchor="end">ews</text>
    <rect x="207" y="68" width="100.0" height="17" rx="4" fill="#50c878"/>
    <text class="value" x="315.0" y="81">1.03M msgs/s · 4 allocs</text>
    <text class="series" x="195" y="106" text-anchor="end">ews-sync</text>
    <rect x="207" y="93" width="67.5" height="17" rx="4" fill="#5aa9e6"/>
    <text class="value" x="282.5" y="106">696k msgs/s · 4 allocs</text>
    <text class="series" x="195" y="131" text-anchor="end">gws</text>
    <rect x="207" y="118" width="95.4" height="17" rx="4" fill="#ef8354"/>
    <text class="value" x="310.4" y="131">982k msgs/s · 259 allocs</text>
    <text class="contract" x="515" y="53">512 connections</text>
    <text class="series" x="665" y="81" text-anchor="end">ews</text>
    <rect x="677" y="68" width="100.0" height="17" rx="4" fill="#50c878"/>
    <text class="value" x="785.0" y="81">1.23M msgs/s · 4 allocs</text>
    <text class="series" x="665" y="106" text-anchor="end">ews-sync</text>
    <rect x="677" y="93" width="61.7" height="17" rx="4" fill="#5aa9e6"/>
    <text class="value" x="746.7" y="106">758k msgs/s · 4 allocs</text>
    <text class="series" x="665" y="131" text-anchor="end">gws</text>
    <rect x="677" y="118" width="94.1" height="17" rx="4" fill="#ef8354"/>
    <text class="value" x="779.1" y="131">1.16M msgs/s · 1027 allocs</text>
    <text class="contract" x="985" y="53">2048 connections</text>
    <text class="series" x="1135" y="81" text-anchor="end">ews</text>
    <rect x="1147" y="68" width="100.0" height="17" rx="4" fill="#50c878"/>
    <text class="value" x="1255.0" y="81">1.05M msgs/s · 4 allocs</text>
    <text class="series" x="1135" y="106" text-anchor="end">ews-sync</text>
    <rect x="1147" y="93" width="66.7" height="17" rx="4" fill="#5aa9e6"/>
    <text class="value" x="1221.7" y="106">703k msgs/s · 4 allocs</text>
    <text class="series" x="1135" y="131" text-anchor="end">gws</text>
    <rect x="1147" y="118" width="66.1" height="17" rx="4" fill="#ef8354"/>
    <text class="value" x="1221.1" y="131">697k msgs/s · 4099 allocs</text>
  </g>
  <g transform="translate(0,493)">
    <rect class="panel" x="25" y="0" width="1450" height="158" rx="10"/>
    <text class="group" x="45" y="27">64 KiB messages</text>
    <text class="contract" x="45" y="53">128 connections</text>
    <text class="series" x="195" y="81" text-anchor="end">ews</text>
    <rect x="207" y="68" width="99.9" height="17" rx="4" fill="#50c878"/>
    <text class="value" x="314.9" y="81">607k msgs/s · 4 allocs</text>
    <text class="series" x="195" y="106" text-anchor="end">ews-sync</text>
    <rect x="207" y="93" width="100.0" height="17" rx="4" fill="#5aa9e6"/>
    <text class="value" x="315.0" y="106">608k msgs/s · 4 allocs</text>
    <text class="series" x="195" y="131" text-anchor="end">gws</text>
    <rect x="207" y="118" width="97.3" height="17" rx="4" fill="#ef8354"/>
    <text class="value" x="312.3" y="131">591k msgs/s · 259 allocs</text>
    <text class="contract" x="515" y="53">512 connections</text>
    <text class="series" x="665" y="81" text-anchor="end">ews</text>
    <rect x="677" y="68" width="100.0" height="17" rx="4" fill="#50c878"/>
    <text class="value" x="785.0" y="81">706k msgs/s · 4 allocs</text>
    <text class="series" x="665" y="106" text-anchor="end">ews-sync</text>
    <rect x="677" y="93" width="100.0" height="17" rx="4" fill="#5aa9e6"/>
    <text class="value" x="785.0" y="106">706k msgs/s · 4 allocs</text>
    <text class="series" x="665" y="131" text-anchor="end">gws</text>
    <rect x="677" y="118" width="95.8" height="17" rx="4" fill="#ef8354"/>
    <text class="value" x="780.8" y="131">676k msgs/s · 1027 allocs</text>
    <text class="contract" x="985" y="53">2048 connections</text>
    <text class="series" x="1135" y="81" text-anchor="end">ews</text>
    <rect x="1147" y="68" width="100.0" height="17" rx="4" fill="#50c878"/>
    <text class="value" x="1255.0" y="81">674k msgs/s · 4 allocs</text>
    <text class="series" x="1135" y="106" text-anchor="end">ews-sync</text>
    <rect x="1147" y="93" width="98.4" height="17" rx="4" fill="#5aa9e6"/>
    <text class="value" x="1253.4" y="106">664k msgs/s · 4 allocs</text>
    <text class="series" x="1135" y="131" text-anchor="end">gws</text>
    <rect x="1147" y="118" width="69.0" height="17" rx="4" fill="#ef8354"/>
    <text class="value" x="1224.0" y="131">465k msgs/s · 4099 allocs</text>
  </g>
  <g transform="translate(0,667)">
    <rect class="panel" x="25" y="0" width="1450" height="158" rx="10"/>
    <text class="group" x="45" y="27">256 KiB messages</text>
    <text class="contract" x="45" y="53">128 connections</text>
    <text class="series" x="195" y="81" text-anchor="end">ews</text>
    <rect x="207" y="68" width="98.8" height="17" rx="4" fill="#50c878"/>
    <text class="value" x="313.8" y="81">255k msgs/s · 5 allocs</text>
    <text class="series" x="195" y="106" text-anchor="end">ews-sync</text>
    <rect x="207" y="93" width="94.3" height="17" rx="4" fill="#5aa9e6"/>
    <text class="value" x="309.3" y="106">243k msgs/s · 6 allocs</text>
    <text class="series" x="195" y="131" text-anchor="end">gws</text>
    <rect x="207" y="118" width="100.0" height="17" rx="4" fill="#ef8354"/>
    <text class="value" x="315.0" y="131">258k msgs/s · 261 allocs</text>
    <text class="contract" x="515" y="53">512 connections</text>
    <text class="series" x="665" y="81" text-anchor="end">ews</text>
    <rect x="677" y="68" width="100.0" height="17" rx="4" fill="#50c878"/>
    <text class="value" x="785.0" y="81">287k msgs/s · 4 allocs</text>
    <text class="series" x="665" y="106" text-anchor="end">ews-sync</text>
    <rect x="677" y="93" width="98.1" height="17" rx="4" fill="#5aa9e6"/>
    <text class="value" x="783.1" y="106">281k msgs/s · 4 allocs</text>
    <text class="series" x="665" y="131" text-anchor="end">gws</text>
    <rect x="677" y="118" width="98.1" height="17" rx="4" fill="#ef8354"/>
    <text class="value" x="783.1" y="131">281k msgs/s · 1029 allocs</text>
    <text class="contract" x="985" y="53">2048 connections</text>
    <text class="series" x="1135" y="81" text-anchor="end">ews</text>
    <rect x="1147" y="68" width="99.6" height="17" rx="4" fill="#50c878"/>
    <text class="value" x="1254.6" y="81">283k msgs/s · 4 allocs</text>
    <text class="series" x="1135" y="106" text-anchor="end">ews-sync</text>
    <rect x="1147" y="93" width="100.0" height="17" rx="4" fill="#5aa9e6"/>
    <text class="value" x="1255.0" y="106">284k msgs/s · 4 allocs</text>
    <text class="series" x="1135" y="131" text-anchor="end">gws</text>
    <rect x="1147" y="118" width="84.4" height="17" rx="4" fill="#ef8354"/>
    <text class="value" x="1239.4" y="131">240k msgs/s · 4104 allocs</text>
  </g>
</svg>
